<svg width="20" height="24" viewBox="0 0 20 24" fill="none" xmlns="http://www.w3.org/2000/svg">
    <path d="M5.15264 10.3758L0 20.2504L4.67906 19.8107L6.94371 23.9992L12.0964 14.1246L5.15264 10.3758Z" fill="#E95454"/>
    <path d="M5.74278 21.1239C5.88736 20.808 5.73614 20.4305 5.4337 20.267L5.13715 20.1064C4.84061 19.9345 4.72774 19.5526 4.88929 19.2435C5.05306 18.9291 5.43812 18.809 5.74721 18.9756L6.5852 19.4281C6.84413 19.5676 7.1687 19.4663 7.30222 19.2015L7.32288 19.1609C7.47631 18.9111 7.38558 18.5809 7.13034 18.4436L4.62373 17.0907C4.31834 16.9256 4.16859 16.5497 4.31096 16.2331C4.46808 15.8962 4.86495 15.7633 5.18436 15.9359L7.50951 17.1913C7.76843 17.3308 8.09301 17.2295 8.23021 16.9662L8.24349 16.9316L8.24718 16.9241C8.39545 16.648 8.29144 16.3013 8.01776 16.1535L6.71356 15.4497C6.40816 15.2846 6.25841 14.9087 6.403 14.5883C6.55865 14.2551 6.95699 14.1186 7.2764 14.2912L8.71708 15.0693C8.98633 15.2148 9.30795 15.0933 9.44737 14.8172C9.44959 14.8134 9.44958 14.8134 9.45106 14.8096C9.45327 14.8059 9.45327 14.8059 9.45475 14.8021C9.60155 14.5298 9.5204 14.1906 9.25041 14.0458L7.69614 13.2069C7.39443 13.0441 7.24468 12.6681 7.38705 12.3515C7.54418 12.0146 7.94104 11.8818 8.26046 12.0544L12.0949 14.1246L6.94224 23.9992L5.52222 21.3737C5.61369 21.3107 5.69336 21.2327 5.74278 21.1239Z" fill="#ED6362"/>
    <path d="M14.7911 10.3758L19.9437 20.2504L15.2647 19.8107L13 23.9992L7.84736 14.1246L14.7911 10.3758Z" fill="#ED6362"/>
    <path d="M14.2009 21.1239C14.0563 20.808 14.2076 20.4306 14.51 20.267L14.8066 20.1064C15.1031 19.9346 15.216 19.5527 15.0544 19.2435C14.8907 18.9291 14.5056 18.8091 14.1965 18.9756L13.3585 19.4281C13.0996 19.5677 12.775 19.4664 12.6415 19.2015L12.6208 19.161C12.4674 18.9111 12.5581 18.581 12.8134 18.4436L15.3207 17.09C15.6261 16.9249 15.7759 16.549 15.6335 16.2324C15.4764 15.8954 15.0795 15.7626 14.7601 15.9352L12.4349 17.1906C12.176 17.3301 11.8514 17.2288 11.7142 16.9654L11.701 16.9309L11.6973 16.9234C11.549 16.6473 11.653 16.3006 11.9267 16.1528L13.2309 15.449C13.5363 15.2839 13.686 14.908 13.5414 14.5876C13.3858 14.2544 12.9875 14.1179 12.668 14.2904L11.2259 15.0701C10.9566 15.2156 10.635 15.0941 10.4956 14.8179C10.4934 14.8142 10.4934 14.8142 10.4919 14.8104C10.4897 14.8067 10.4897 14.8067 10.4882 14.8029C10.3414 14.5306 10.4226 14.1914 10.6926 14.0466L12.2468 13.2077C12.5485 13.0449 12.6983 12.6689 12.5559 12.3523C12.3988 12.0154 12.0019 11.8826 11.6825 12.0552L7.84809 14.1254L13.0007 24L14.4208 21.3745C14.33 21.3107 14.2504 21.2327 14.2009 21.1239Z" fill="#E95454"/>
    <ellipse cx="9.97183" cy="8.75735" rx="8.60937" ry="8.75735" fill="#FFCC5B"/>
    <path d="M11.1396 7.75261H5.68376C5.25959 7.75261 4.91141 7.39844 4.91141 6.96699L4.91731 6.91297V6.90096C4.91141 6.4455 5.27656 6.07332 5.72506 6.07332H9.50637C10.0073 6.07332 10.4499 5.6959 10.4794 5.18566C10.503 4.65216 10.0847 4.20195 9.55949 4.20195H5.55392C5.11206 4.20195 4.78158 3.82452 4.78748 3.37431C4.78748 3.36831 4.78748 3.36831 4.78748 3.36231C4.78748 3.3563 4.78748 3.3563 4.78748 3.3503C4.78158 2.90084 5.11132 2.52266 5.55392 2.52266H9.74538C10.2404 2.52266 10.683 2.14524 10.7125 1.641C10.7361 1.1015 10.3178 0.65729 9.79259 0.65729H6.72314C3.59319 1.96965 1.38755 5.10012 1.38755 8.75733C1.38755 12.4145 3.59319 15.5443 6.72387 16.8551H10.621C11.116 16.8551 11.5586 16.4777 11.5881 15.9735C11.6117 15.434 11.1934 14.9905 10.6682 14.9905L6.2348 14.9897C5.71179 14.9897 5.29058 14.5448 5.31861 14.006C5.34443 13.5018 5.78998 13.1229 6.28643 13.1229H8.00521C8.49945 13.1086 8.89853 12.6967 8.89853 12.1902C8.89853 11.6747 8.48617 11.2545 7.97865 11.2545H5.37319C4.94903 11.2545 4.60085 10.9011 4.60675 10.4689V10.4029C4.57725 9.9774 4.91362 9.61723 5.33189 9.61723H11.0865C11.5873 9.61723 12.0299 9.23981 12.0595 8.73557C12.0831 8.19682 11.6641 7.75261 11.1396 7.75261Z" fill="#FDBC4B"/>
    <path d="M9.97186 15.0078C6.583 15.0078 3.82631 12.203 3.82631 8.7566C3.82631 5.31024 6.583 2.50618 9.97186 2.50618C13.3607 2.50618 16.1174 5.31099 16.1174 8.75735C16.1174 12.2037 13.3607 15.0078 9.97186 15.0078Z" fill="#FFDB70"/>
    <path d="M7.01081 11.232C6.91418 11.3213 6.85738 11.4279 6.81238 11.5404C6.76959 11.6537 6.73861 11.773 6.74672 11.9066C6.75558 12.0409 6.80943 12.1887 6.8168 12.3215C6.81828 12.3388 6.81385 12.3553 6.81459 12.3718C6.56673 12.0386 6.35502 11.6852 6.18019 11.3176C6.18462 11.2433 6.19568 11.1727 6.22224 11.1105C6.26502 11.0024 6.35576 10.9214 6.4133 10.8231C6.4701 10.7248 6.49813 10.6122 6.52247 10.4974C6.5446 10.3811 6.56231 10.2633 6.55124 10.1252C6.54091 10.1185 6.52985 10.1117 6.51952 10.1042C6.40961 10.1635 6.33363 10.2468 6.26724 10.3383C6.2038 10.4314 6.14921 10.5319 6.12856 10.655C6.10938 10.7788 6.12856 10.9251 6.10716 11.0459C6.10347 11.0692 6.09315 11.0895 6.08725 11.112C5.92791 10.7443 5.80398 10.3639 5.7162 9.97593C5.73611 9.89189 5.76341 9.81385 5.80841 9.75232C5.87037 9.66453 5.97364 9.61276 6.04741 9.53772C6.12044 9.46119 6.16839 9.36514 6.21265 9.2646C6.25543 9.1618 6.29379 9.05675 6.30707 8.92469C6.29822 8.91568 6.28937 8.90668 6.28052 8.89767C6.16544 8.92544 6.07766 8.98471 5.99799 9.053C5.91979 9.12278 5.84972 9.20382 5.80619 9.31112C5.76415 9.41992 5.75456 9.55948 5.7103 9.66453C5.69923 9.69305 5.68153 9.71481 5.66677 9.74032C5.59448 9.35614 5.55686 8.96596 5.55465 8.57502C5.59374 8.48273 5.63948 8.39869 5.70587 8.34316C5.78111 8.27713 5.88734 8.25612 5.97069 8.20435C6.05331 8.15183 6.11601 8.07229 6.17577 7.989C6.23404 7.90271 6.28863 7.81192 6.32478 7.68886C6.31814 7.6776 6.3115 7.6671 6.30486 7.65584C6.19126 7.65284 6.09905 7.68811 6.012 7.73238C5.92643 7.77965 5.84529 7.83668 5.78554 7.92822C5.72579 8.02051 5.69185 8.14882 5.63063 8.23586C5.60997 8.26663 5.58415 8.28914 5.55907 8.31315C5.57235 7.93122 5.61882 7.55004 5.69849 7.17337C5.70218 7.16736 5.70587 7.16211 5.70956 7.15611C5.76931 7.06382 5.8357 6.98203 5.91906 6.94076C6.00094 6.89724 6.10274 6.90549 6.18978 6.87698C6.27609 6.84772 6.34838 6.78769 6.4192 6.72091C6.48854 6.65187 6.55567 6.57759 6.61247 6.46579C6.60804 6.45378 6.60435 6.44102 6.59993 6.42827C6.49592 6.3975 6.40444 6.40876 6.31592 6.42977C6.22814 6.45378 6.14257 6.48905 6.07028 6.56183C5.99799 6.63612 5.94192 6.75092 5.86889 6.81695C5.83717 6.84772 5.8025 6.86797 5.76636 6.88748C5.86373 6.51381 5.99577 6.14614 6.16101 5.78972C6.16396 5.79422 6.16765 5.79797 6.1706 5.80248C6.18462 5.78747 6.19937 5.77321 6.21339 5.75821C6.28715 5.68392 6.36387 5.62164 6.44723 5.60288C6.53059 5.58112 6.62132 5.61489 6.70542 5.60813C6.78951 5.60063 6.8677 5.55936 6.9459 5.51059C7.02335 5.45882 7.10007 5.40104 7.17531 5.30349C7.17457 5.28999 7.1731 5.27648 7.17236 5.26372C7.08458 5.20895 6.99975 5.19769 6.91418 5.19769C6.82934 5.19994 6.74451 5.2142 6.66337 5.26823C6.58222 5.32375 6.50698 5.42205 6.42731 5.46857C6.38822 5.49333 6.34691 5.50759 6.3056 5.51659C6.30707 5.50834 6.30707 5.50083 6.30855 5.49258C6.57706 4.98534 6.9186 4.50587 7.33391 4.06916C6.94073 4.4556 6.60657 4.8818 6.33068 5.33576C6.33142 5.32225 6.33732 5.30649 6.33732 5.29299C6.34396 5.19544 6.34838 5.09865 6.33953 5.0071C6.31076 4.82777 6.26281 4.65444 6.13224 4.50812C6.11823 4.51337 6.10421 4.51863 6.0902 4.52388C5.95151 4.77224 5.91537 4.9891 5.91463 5.18719C5.92053 5.28398 5.94192 5.37252 5.97069 5.45731C5.9943 5.54511 6.03708 5.62239 6.0902 5.69367C6.09757 5.70418 6.10495 5.71393 6.11306 5.72444C5.9552 6.02983 5.82242 6.34648 5.71546 6.66988C5.71472 6.66688 5.71546 6.66313 5.71472 6.65938C5.69333 6.55958 5.67267 6.45828 5.64095 6.36449C5.56719 6.18365 5.47719 6.01182 5.31343 5.88351C5.30089 5.89177 5.28908 5.90002 5.27654 5.90828C5.20204 6.19341 5.21974 6.42677 5.2699 6.63236C5.29941 6.73141 5.34441 6.8192 5.39457 6.90174C5.44031 6.98803 5.50301 7.06006 5.57383 7.12384C5.57604 7.12534 5.57825 7.1276 5.57973 7.1291C5.49858 7.45025 5.44104 7.77665 5.40859 8.10605C5.36506 8.00926 5.3208 7.91321 5.26769 7.82692C5.14819 7.65434 5.01615 7.49302 4.8214 7.38947C4.81107 7.39997 4.80075 7.41048 4.79042 7.42173C4.78599 7.73088 4.86197 7.96799 4.96377 8.17058C5.0191 8.26738 5.08622 8.34917 5.15778 8.4242C5.22048 8.49774 5.29646 8.55326 5.37687 8.60279C5.36875 8.92769 5.38351 9.25409 5.4226 9.57824C5.35769 9.4942 5.29351 9.40941 5.22269 9.33663C5.05819 9.18356 4.8841 9.04249 4.6628 8.96971C4.65469 8.98246 4.64731 8.99522 4.63919 9.00798C4.71001 9.32537 4.84722 9.55423 5.00213 9.74107C5.08254 9.82961 5.17179 9.90014 5.264 9.96242C5.33777 10.0187 5.42039 10.0547 5.50448 10.087C5.56719 10.4036 5.65349 10.7165 5.76267 11.0242C5.67931 10.9566 5.59743 10.8876 5.51112 10.8298C5.3031 10.706 5.08991 10.595 4.84501 10.562C4.83984 10.5762 4.83542 10.5905 4.83025 10.6047C4.98147 10.9146 5.17917 11.121 5.38646 11.28C5.49194 11.3543 5.60186 11.4076 5.71325 11.4526C5.79439 11.4901 5.87922 11.5066 5.96332 11.5224C6.0961 11.818 6.25248 12.1062 6.431 12.3838C6.33215 12.3358 6.23404 12.2848 6.13519 12.2472C5.88734 12.1647 5.638 12.0934 5.37613 12.1047C5.37465 12.1204 5.37318 12.1354 5.3717 12.1512C5.60555 12.4363 5.86447 12.6052 6.12118 12.7237C6.25027 12.777 6.37936 12.8085 6.50772 12.831C6.59181 12.8498 6.67443 12.8468 6.75779 12.8475C6.89647 13.0276 7.04622 13.2017 7.20556 13.3698C7.28965 13.2842 7.37448 13.1979 7.45858 13.1124C7.2749 12.9323 7.1045 12.7425 6.94663 12.5459C6.93852 12.4814 6.93557 12.4191 6.94442 12.3598C6.95991 12.2345 7.02999 12.1264 7.06392 12.0094C7.09638 11.8916 7.09859 11.767 7.09712 11.641C7.09343 11.5141 7.08532 11.3873 7.04548 11.247C7.03442 11.241 7.02261 11.2365 7.01081 11.232Z" fill="#ED6362"/>
    <path d="M12.9328 11.232C13.0295 11.3213 13.0863 11.4279 13.1313 11.5404C13.1741 11.6537 13.205 11.773 13.1969 11.9066C13.1881 12.0409 13.1342 12.1887 13.1269 12.3216C13.1254 12.3388 13.1298 12.3553 13.1291 12.3718C13.3769 12.0387 13.5886 11.6853 13.7635 11.3176C13.759 11.2433 13.748 11.1728 13.7214 11.1105C13.6786 11.0024 13.5879 10.9214 13.5304 10.8231C13.4736 10.7248 13.4455 10.6123 13.4212 10.4974C13.3991 10.3811 13.3814 10.2633 13.3924 10.1253C13.4027 10.1185 13.4138 10.1118 13.4241 10.1043C13.5341 10.1635 13.61 10.2468 13.6764 10.3384C13.7399 10.4314 13.7944 10.532 13.8151 10.655C13.8343 10.7788 13.8151 10.9251 13.8365 11.046C13.8402 11.0692 13.8505 11.0895 13.8564 11.112C14.0158 10.7443 14.1397 10.3639 14.2275 9.97595C14.2075 9.89192 14.1803 9.81388 14.1353 9.75235C14.0733 9.66456 13.97 9.61278 13.8962 9.53775C13.8232 9.46121 13.7753 9.36517 13.731 9.26462C13.6882 9.16182 13.6499 9.05677 13.6366 8.92471C13.6454 8.91571 13.6543 8.9067 13.6631 8.8977C13.7782 8.92546 13.866 8.98474 13.9457 9.05302C14.0239 9.12281 14.0939 9.20384 14.1375 9.31114C14.1795 9.41994 14.1891 9.55951 14.2334 9.66456C14.2444 9.69307 14.2621 9.71483 14.2769 9.74034C14.3492 9.35616 14.3868 8.96598 14.389 8.57505C14.3499 8.48276 14.3042 8.39872 14.2378 8.34319C14.1625 8.27716 14.0563 8.25615 13.973 8.20438C13.8903 8.15185 13.8276 8.07231 13.7679 7.98903C13.7096 7.90273 13.655 7.81194 13.6189 7.68888C13.6255 7.67763 13.6322 7.66712 13.6388 7.65587C13.7524 7.65287 13.8446 7.68813 13.9317 7.7324C14.0172 7.77968 14.0984 7.8367 14.1581 7.92825C14.2179 8.02054 14.2518 8.14885 14.313 8.23589C14.3337 8.26665 14.3595 8.28917 14.3846 8.31318C14.3713 7.93125 14.3248 7.55007 14.2452 7.17339C14.2415 7.16739 14.2378 7.16214 14.2341 7.15614C14.1744 7.06384 14.108 6.98205 14.0246 6.94078C13.9427 6.89726 13.8409 6.90552 13.7539 6.877C13.6676 6.84774 13.5953 6.78771 13.5245 6.72093C13.4551 6.6519 13.388 6.57761 13.3312 6.46581C13.3356 6.45381 13.3393 6.44105 13.3437 6.42829C13.4477 6.39753 13.5392 6.40879 13.6277 6.4298C13.7155 6.45381 13.8011 6.48907 13.8734 6.56186C13.9457 6.63614 14.0017 6.75095 14.0748 6.81698C14.1065 6.84774 14.1412 6.868 14.1773 6.88751C14.0814 6.51459 13.9501 6.14691 13.7841 5.7905C13.7812 5.795 13.7775 5.79875 13.7745 5.80325C13.7605 5.78825 13.7458 5.77399 13.7317 5.75898C13.658 5.6847 13.5813 5.62242 13.4979 5.60366C13.4145 5.5819 13.3238 5.61566 13.2397 5.60891C13.1556 5.60141 13.0774 5.56014 12.9992 5.51137C12.9218 5.45959 12.8451 5.40181 12.7698 5.30427C12.7706 5.29076 12.772 5.27726 12.7728 5.2645C12.8606 5.20972 12.9454 5.19847 13.031 5.19847C13.1158 5.20072 13.2006 5.21498 13.2818 5.269C13.3629 5.32453 13.4382 5.42282 13.5178 5.46935C13.5569 5.49411 13.5982 5.50836 13.6395 5.51737C13.6381 5.50986 13.6373 5.50161 13.6366 5.49411C13.3681 4.98687 13.0265 4.5074 12.6112 4.07069C13.0044 4.45712 13.3386 4.88332 13.6145 5.33728C13.6137 5.32378 13.6078 5.30802 13.6078 5.29451C13.6012 5.19697 13.5968 5.10017 13.6056 5.00863C13.6344 4.8293 13.6823 4.65597 13.8129 4.50965C13.8269 4.5149 13.8409 4.52015 13.8549 4.5254C13.9936 4.77377 14.0298 4.99062 14.0305 5.18871C14.0246 5.28551 14.0032 5.37405 13.9744 5.45884C13.9508 5.54663 13.9081 5.62392 13.8549 5.6952C13.8476 5.70571 13.8402 5.71546 13.8321 5.72597C13.9899 6.03136 14.1227 6.34801 14.2297 6.67141C14.2304 6.66841 14.2297 6.66466 14.2304 6.6609C14.2503 6.55961 14.271 6.45831 14.3027 6.36451C14.3765 6.18368 14.4665 6.01185 14.6302 5.88354C14.6428 5.89179 14.6553 5.8993 14.6679 5.90755C14.7424 6.19268 14.7247 6.42604 14.6752 6.63164C14.6457 6.73069 14.6007 6.81848 14.5506 6.90102C14.5048 6.98731 14.4421 7.05934 14.3713 7.12312C14.3691 7.12462 14.3669 7.12687 14.3654 7.12837C14.4466 7.44952 14.5041 7.77593 14.5365 8.10533C14.5801 8.00853 14.6243 7.91249 14.6774 7.8262C14.7969 7.65362 14.929 7.49229 15.1237 7.38874C15.1341 7.39925 15.1444 7.40975 15.1547 7.42026C15.1591 7.7294 15.0832 7.96651 14.9814 8.16911C14.926 8.2659 14.8589 8.34769 14.7874 8.42273C14.7247 8.49626 14.6487 8.55179 14.5683 8.60131C14.5764 8.92621 14.5616 9.25262 14.5225 9.57677C14.5874 9.49273 14.6516 9.40794 14.7224 9.33515C14.8869 9.18208 15.061 9.04102 15.2823 8.96823C15.2904 8.98099 15.2978 8.99374 15.3059 9.0065C15.2351 9.3239 15.0979 9.55276 14.943 9.73959C14.8626 9.82814 14.7733 9.89867 14.6811 9.96095C14.6074 10.0172 14.5247 10.0532 14.4406 10.0855C14.3779 10.4022 14.2916 10.7151 14.1825 11.0227C14.2658 10.9552 14.3477 10.8861 14.434 10.8284C14.642 10.7045 14.8552 10.5935 15.1001 10.5605C15.1053 10.5747 15.1097 10.589 15.1149 10.6032C14.9637 10.9131 14.766 11.1195 14.5587 11.2786C14.4532 11.3528 14.3433 11.4061 14.2319 11.4511C14.1507 11.4887 14.0659 11.5052 13.9818 11.5209C13.849 11.8166 13.6927 12.1047 13.5141 12.3823C13.613 12.3343 13.7111 12.2833 13.8099 12.2458C14.0578 12.1632 14.3071 12.0919 14.569 12.1032C14.5705 12.119 14.572 12.134 14.5734 12.1497C14.3396 12.4349 14.0807 12.6037 13.824 12.7222C13.6949 12.7755 13.5658 12.807 13.4374 12.8295C13.3533 12.8483 13.2707 12.8453 13.1873 12.846C13.0487 13.0261 12.8989 13.2002 12.7396 13.3683C12.6555 13.2828 12.5707 13.1965 12.4866 13.1109C12.6702 12.9308 12.8406 12.741 12.9985 12.5444C13.0066 12.4799 13.0096 12.4176 13.0007 12.3583C12.9852 12.233 12.9151 12.125 12.8812 12.0079C12.8488 11.8901 12.8465 11.7655 12.848 11.6395C12.8517 11.5127 12.8598 11.3859 12.8997 11.2455C12.9092 11.241 12.921 11.2365 12.9328 11.232Z" fill="#ED6362"/>
    <path d="M9.85015 4.61764C9.67311 5.12037 9.34706 5.55933 8.87126 5.93676C8.62857 6.1296 8.39989 6.27141 8.17637 6.39672V7.84115C8.68242 7.60404 9.15526 7.3219 9.55656 6.93998V12.8955H11.1101V4.61764H9.85015Z" fill="#E95454"/>
</svg>