<svg width="160" height="104" viewBox="0 0 160 104" fill="none" xmlns="http://www.w3.org/2000/svg">
    <path d="M76.1132 75.2791C76.1132 75.2791 89.8526 104.442 129.599 95.2594C129.599 95.2594 125.393 91.6138 129.599 86.7071L96.3026 72.1961L76.1132 75.2791Z" fill="url(#paint0_linear_0_197)"/>
    <path d="M77.3814 75.7238C77.3814 75.7238 90.4689 103.503 128.331 94.7539C128.331 94.7539 124.324 91.2816 128.331 86.6071L96.6116 72.7856L77.3814 75.7238Z" fill="url(#paint1_linear_0_197)"/>
    <circle cx="82.7239" cy="46.8768" r="31.9193" fill="url(#paint2_linear_0_197)"/>
    <circle cx="82.7239" cy="46.8768" r="30.585" fill="url(#paint3_linear_0_197)"/>
    <path fill-rule="evenodd" clip-rule="evenodd" d="M35.8471 46.8768C35.8471 20.9878 56.8348 0 82.7239 0C108.613 0 129.601 20.9878 129.601 46.8768C129.601 72.7659 108.613 93.7537 82.7239 93.7537C56.8348 93.7537 35.8471 72.7659 35.8471 46.8768ZM114.628 28.4567C111.63 23.2627 104.989 21.4822 99.7946 24.4798V24.4816C97.2997 25.9215 95.4792 28.2937 94.7335 31.076C93.9878 33.8584 94.3781 36.8231 95.8185 39.3177C98.8181 44.5109 105.459 46.2897 110.653 43.2908C115.847 40.2919 117.626 33.6508 114.628 28.4567ZM65.6533 69.2721C61.8494 71.4688 57.0968 71.1577 53.6117 68.4839C50.1267 65.8101 48.5955 61.3001 49.7322 57.0572C50.869 52.8142 54.4497 49.6738 58.8048 49.1004C63.1598 48.5271 67.4314 50.6336 69.6276 54.4378C72.6261 59.6317 70.8468 66.273 65.6533 69.2721ZM58.8048 44.655C63.1598 45.2284 67.4314 43.1218 69.6276 39.3177C72.6261 34.1238 70.8468 27.4825 65.6533 24.4833C61.8494 22.2867 57.0968 22.5978 53.6117 25.2716C50.1267 27.9454 48.5955 32.4553 49.7322 36.6983C50.869 40.9413 54.4497 44.0817 58.8048 44.655ZM82.7221 83.7188C76.7243 83.7188 71.8621 78.8566 71.8621 72.8588C71.8621 66.861 76.7243 61.9987 82.7221 61.9987C88.72 61.9987 93.5822 66.861 93.5822 72.8588C93.5812 78.8552 88.7204 83.7161 82.7239 83.7171L82.7221 83.7188ZM82.7239 39.4534C78.9279 39.4534 75.8506 42.5307 75.8506 46.3267C75.8506 50.1227 78.9279 53.2 82.7239 53.2C86.5199 53.2 89.5972 50.1227 89.5972 46.3267C89.5972 42.5307 86.5199 39.4534 82.7239 39.4534ZM82.7239 31.7549C78.3314 31.7549 74.3715 29.109 72.6905 25.0508C71.0096 20.9927 71.9387 16.3216 75.0447 13.2157C78.1507 10.1097 82.8218 9.18057 86.8799 10.8615C90.938 12.5424 93.584 16.5024 93.584 20.8949C93.584 26.8927 88.7218 31.7549 82.7239 31.7549ZM103.806 70.6334C108.161 71.2068 112.433 69.1002 114.629 65.2961C117.627 60.1021 115.848 53.4609 110.655 50.4617C106.851 48.2651 102.098 48.5762 98.6131 51.25C95.128 53.9238 93.5968 58.4337 94.7336 62.6767C95.8703 66.9197 99.4511 70.06 103.806 70.6334Z" fill="url(#paint4_linear_0_197)"/>
    <path fill-rule="evenodd" clip-rule="evenodd" d="M37.176 46.884C37.176 21.7254 57.5726 1.33605 82.7239 1.33605C107.875 1.33605 128.272 21.7254 128.272 46.884C128.272 72.0425 107.882 92.4319 82.7239 92.4319C57.5654 92.4319 37.176 72.0425 37.176 46.884ZM111.007 25.8857C107.622 23.2879 103.004 22.9853 99.3087 25.1192H99.307C94.2613 28.0335 92.5332 34.4861 95.447 39.532C97.5807 43.2278 101.731 45.2743 105.962 44.7173C110.193 44.1603 113.672 41.1094 114.776 36.9872C115.881 32.8651 114.393 28.4836 111.007 25.8857ZM66.1391 68.6344C62.4439 70.7694 57.8265 70.4682 54.44 67.8711C51.0535 65.2741 49.565 60.8928 50.6685 56.7703C51.7721 52.6478 55.2504 49.596 59.4814 49.0381C63.7124 48.4802 67.8629 50.5261 69.9973 54.2216C72.9114 59.2671 71.1841 65.7195 66.1391 68.6344ZM59.4826 44.7155C63.7136 45.2725 67.8636 43.226 69.9973 39.5302C72.9108 34.4838 71.1819 28.0311 66.1356 25.1174C62.4398 22.9836 57.8226 23.2861 54.4369 25.8839C51.0512 28.4818 49.5638 32.8633 50.6683 36.9855C51.7727 41.1076 55.2516 44.1585 59.4826 44.7155ZM82.7204 82.6668C76.8932 82.6668 72.1693 77.9429 72.1693 72.1157C72.1693 66.2885 76.8932 61.5647 82.7204 61.5647C88.5475 61.5647 93.2714 66.2885 93.2714 72.1157C93.2724 77.9422 88.5504 82.6666 82.7239 82.6685L82.7204 82.6668ZM82.7222 39.666C79.0347 39.666 76.0454 42.6553 76.0454 46.3427C76.0454 50.0302 79.0347 53.0195 82.7222 53.0195C86.4096 53.0195 89.3989 50.0302 89.3989 46.3427C89.3989 42.6553 86.4096 39.666 82.7222 39.666ZM82.7222 32.1872C76.8952 32.1872 72.1714 27.4637 72.1711 21.6367C72.1708 15.8098 76.894 11.0857 82.721 11.0851C88.5479 11.0844 93.2722 15.8074 93.2732 21.6343C93.2732 27.4608 88.5504 32.1844 82.7239 32.1854L82.7222 32.1872ZM103.205 69.958C107.436 70.515 111.586 68.4685 113.72 64.7727C116.633 59.7263 114.904 53.2735 109.858 50.3599C106.162 48.226 101.545 48.5286 98.1593 51.1264C94.7736 53.7242 93.2862 58.1058 94.3907 62.2279C95.4952 66.3501 98.974 69.401 103.205 69.958Z" fill="url(#paint5_linear_0_197)"/>
    <path opacity="0.2" d="M40.2554 49.5472C40.2554 24.3958 60.6448 3.99926 85.8033 3.99926C95.2961 3.98463 104.554 6.95041 112.271 12.4783C104.04 5.44014 93.5613 1.57969 82.7311 1.59505C57.5797 1.59505 37.1832 21.9844 37.1832 47.143C37.1727 61.8545 44.2787 75.6625 56.2561 84.2047C46.0931 75.5615 40.2422 62.8885 40.2554 49.5472Z" fill="white"/>
    <circle opacity="0.2" cx="82.7239" cy="46.341" r="7.67884" stroke="white" stroke-width="13"/>
    <circle cx="24.5244" cy="56.1632" r="2.7043" fill="url(#paint6_linear_0_197)"/>
    <circle cx="24.5244" cy="56.1632" r="2.40422" fill="#FDD835"/>
    <path opacity="0.2" d="M22.7221 56.8634C22.7214 55.8974 23.2994 55.0248 24.1892 54.6487C25.0791 54.2725 26.1077 54.466 26.8 55.1398C26.3849 54.2763 25.4965 53.742 24.5391 53.7801C23.5818 53.8183 22.7387 54.4216 22.3936 55.3154C22.0485 56.2091 22.2675 57.2225 22.9508 57.8941C22.7988 57.5718 22.7207 57.2197 22.7221 56.8634Z" fill="white"/>
    <circle cx="32.3355" cy="56.1632" r="2.7043" fill="url(#paint7_linear_0_197)"/>
    <circle cx="32.3355" cy="56.1632" r="2.40422" fill="#FDD835"/>
    <path opacity="0.2" d="M30.5332 56.8634C30.5324 55.8974 31.1104 55.0248 32.0003 54.6487C32.8901 54.2725 33.9187 54.466 34.6111 55.1398C34.196 54.2763 33.3075 53.742 32.3502 53.7801C31.3929 53.8183 30.5497 54.4216 30.2047 55.3154C29.8596 56.2091 30.0785 57.2225 30.7618 57.8941C30.6099 57.5718 30.5317 57.2197 30.5332 56.8634Z" fill="white"/>
    <circle cx="10.1045" cy="56.1632" r="2.7043" fill="url(#paint8_linear_0_197)"/>
    <circle cx="10.1045" cy="56.1632" r="2.40422" fill="#FDD835"/>
    <path opacity="0.2" d="M8.30223 56.8634C8.30147 55.8973 8.87946 55.0248 9.76931 54.6487C10.6592 54.2725 11.6877 54.466 12.3801 55.1397C11.9641 54.2778 11.0762 53.7451 10.12 53.7835C9.16369 53.822 8.32146 54.4244 7.97603 55.3169C7.6306 56.2094 7.84786 57.2218 8.52908 57.894C8.37773 57.5717 8.30023 57.2196 8.30223 56.8634Z" fill="white"/>
    <circle cx="20.3197" cy="49.3525" r="2.7043" fill="url(#paint9_linear_0_197)"/>
    <circle cx="20.3197" cy="49.3525" r="2.40422" fill="#FDD835"/>
    <path opacity="0.2" d="M18.5157 50.0544C18.5149 49.0884 19.0929 48.2158 19.9827 47.8397C20.8726 47.4636 21.9012 47.657 22.5935 48.3308C22.1836 47.4609 21.2943 46.9193 20.3333 46.9541C19.3723 46.989 18.5246 47.5935 18.1787 48.4908C17.8328 49.3881 18.0553 50.4052 18.7443 51.0761C18.5936 50.7566 18.5155 50.4077 18.5157 50.0544Z" fill="white"/>
    <circle cx="36.2418" cy="50.4546" r="2.7043" fill="url(#paint10_linear_0_197)"/>
    <circle cx="36.2418" cy="50.4546" r="2.40422" fill="#FDD835"/>
    <path opacity="0.2" d="M34.4378 51.1565C34.437 50.1905 35.015 49.3179 35.9049 48.9418C36.7947 48.5657 37.8233 48.7591 38.5157 49.4329C38.1057 48.563 37.2165 48.0214 36.2555 48.0562C35.2944 48.0911 34.4468 48.6956 34.1009 49.5929C33.755 50.4902 33.9775 51.5073 34.6664 52.1782C34.5157 51.8587 34.4377 51.5098 34.4378 51.1565Z" fill="white"/>
    <circle cx="32.3355" cy="48.0504" r="2.7043" fill="url(#paint11_linear_0_197)"/>
    <circle cx="32.3355" cy="48.0504" r="2.40422" fill="#FDD835"/>
    <path opacity="0.2" d="M30.5332 48.7523C30.5324 47.7863 31.1104 46.9137 32.0002 46.5376C32.8901 46.1614 33.9187 46.3549 34.611 47.0287C34.2011 46.1588 33.3119 45.6172 32.3508 45.652C31.3898 45.6869 30.5421 46.2914 30.1962 47.1887C29.8503 48.086 30.0728 49.1031 30.7618 49.774C30.6111 49.4545 30.533 49.1056 30.5332 48.7523Z" fill="white"/>
    <circle cx="34.2395" cy="53.759" r="2.7043" fill="url(#paint12_linear_0_197)"/>
    <circle cx="34.2395" cy="53.759" r="2.40422" fill="#FDD835"/>
    <path opacity="0.2" d="M32.4355 54.461C32.4347 53.4949 33.0127 52.6224 33.9025 52.2462C34.7924 51.8701 35.821 52.0636 36.5133 52.7373C36.1042 51.8659 35.2145 51.3229 34.2525 51.3574C33.2904 51.392 32.4419 51.9975 32.0964 52.8959C31.7508 53.7944 31.9749 54.8124 32.6659 55.4827C32.5146 55.1633 32.4359 54.8144 32.4355 54.461Z" fill="white"/>
    <circle cx="27.2287" cy="49.3525" r="2.7043" fill="url(#paint13_linear_0_197)"/>
    <circle cx="27.2287" cy="49.3525" r="2.40422" fill="#FDD835"/>
    <path opacity="0.2" d="M25.4264 50.0544C25.4257 49.0884 26.0037 48.2158 26.8935 47.8397C27.7834 47.4636 28.8119 47.657 29.5043 48.3308C29.0943 47.4609 28.2051 46.9193 27.2441 46.9541C26.2831 46.989 25.4354 47.5935 25.0895 48.4908C24.7436 49.3881 24.9661 50.4052 25.6551 51.0761C25.5044 50.7566 25.4263 50.4077 25.4264 50.0544Z" fill="white"/>
    <circle cx="26.9286" cy="41.7415" r="2.7043" fill="url(#paint14_linear_0_197)"/>
    <circle cx="26.9287" cy="41.7415" r="2.40422" fill="#FDD835"/>
    <path opacity="0.2" d="M25.1264 42.4435C25.1256 41.4774 25.7036 40.6049 26.5934 40.2287C27.4833 39.8526 28.5119 40.0461 29.2042 40.7198C28.7943 39.8499 27.9051 39.3083 26.944 39.3432C25.983 39.378 25.1353 39.9826 24.7894 40.8799C24.4435 41.7772 24.666 42.7943 25.355 43.4652C25.2043 43.1457 25.1262 42.7968 25.1264 42.4435Z" fill="white"/>
    <circle cx="40.2465" cy="45.6479" r="2.7043" fill="url(#paint15_linear_0_197)"/>
    <circle cx="40.2465" cy="45.6479" r="2.40422" fill="#FDD835"/>
    <path opacity="0.2" d="M38.4442 46.3481C38.4435 45.382 39.0214 44.5095 39.9113 44.1334C40.8011 43.7572 41.8297 43.9507 42.5221 44.6244C42.1121 43.7546 41.2229 43.213 40.2619 43.2478C39.3009 43.2826 38.4532 43.8872 38.1073 44.7845C37.7614 45.6818 37.9839 46.6989 38.6728 47.3698C38.5222 47.0503 38.4441 46.7014 38.4442 46.3481Z" fill="white"/>
    <circle cx="38.9461" cy="50.7547" r="2.7043" fill="url(#paint16_linear_0_197)"/>
    <circle cx="38.9461" cy="50.7546" r="2.40422" fill="#FDD835"/>
    <path opacity="0.2" d="M37.1421 51.4638C37.1413 50.4977 37.7193 49.6251 38.6091 49.249C39.499 48.8729 40.5276 49.0664 41.22 49.7401C40.81 48.8702 39.9208 48.3286 38.9597 48.3635C37.9987 48.3983 37.1511 49.0029 36.8051 49.9002C36.4592 50.7975 36.6817 51.8146 37.3707 52.4855C37.22 52.166 37.142 51.817 37.1421 51.4638Z" fill="white"/>
    <circle cx="44.9531" cy="49.7526" r="2.7043" fill="url(#paint17_linear_0_197)"/>
    <circle cx="44.9531" cy="49.7526" r="2.40422" fill="#FDD835"/>
    <path opacity="0.2" d="M43.1508 50.4546C43.1501 49.4885 43.728 48.6159 44.6179 48.2398C45.5077 47.8637 46.5363 48.0571 47.2287 48.7309C46.8204 47.858 45.9301 47.3136 44.9671 47.3478C44.0041 47.3821 43.1548 47.9884 42.8096 48.8881C42.4644 49.7877 42.6901 50.8066 43.383 51.4763C43.2311 51.157 43.1518 50.8081 43.1508 50.4546Z" fill="white"/>
    <circle cx="42.2506" cy="52.2568" r="2.7043" fill="url(#paint18_linear_0_197)"/>
    <circle cx="42.2506" cy="52.2568" r="2.40422" fill="#FDD835"/>
    <path opacity="0.2" d="M40.4465 52.9588C40.4458 51.9927 41.0238 51.1202 41.9136 50.744C42.8035 50.3679 43.832 50.5614 44.5244 51.2351C44.1144 50.3652 43.2252 49.8236 42.2642 49.8585C41.3032 49.8933 40.4555 50.4979 40.1096 51.3952C39.7637 52.2925 39.9862 53.3096 40.6752 53.9805C40.5245 53.661 40.4464 53.3121 40.4465 52.9588Z" fill="white"/>
    <circle cx="24.2243" cy="45.6479" r="2.7043" fill="url(#paint19_linear_0_197)"/>
    <circle cx="24.2243" cy="45.6479" r="2.40422" fill="#FDD835"/>
    <path opacity="0.2" d="M22.4221 46.3481C22.4213 45.382 22.9993 44.5095 23.8892 44.1334C24.779 43.7572 25.8076 43.9507 26.5 44.6244C26.09 43.7546 25.2008 43.213 24.2397 43.2478C23.2787 43.2826 22.4311 43.8872 22.0852 44.7845C21.7392 45.6818 21.9618 46.6989 22.6507 47.3698C22.5 47.0503 22.422 46.7014 22.4221 46.3481Z" fill="white"/>
    <circle cx="20.3197" cy="55.8614" r="2.7043" fill="url(#paint20_linear_0_197)"/>
    <circle cx="20.3197" cy="55.8614" r="2.40422" fill="#FBC02D"/>
    <path opacity="0.2" d="M18.5157 56.5633C18.5149 55.5973 19.0929 54.7247 19.9827 54.3486C20.8726 53.9725 21.9012 54.1659 22.5935 54.8397C22.1836 53.9698 21.2943 53.4282 20.3333 53.463C19.3723 53.4979 18.5246 54.1024 18.1787 54.9997C17.8328 55.897 18.0553 56.9141 18.7443 57.585C18.5936 57.2655 18.5155 56.9166 18.5157 56.5633Z" fill="white"/>
    <circle cx="14.211" cy="56.1632" r="2.7043" fill="url(#paint21_linear_0_197)"/>
    <circle cx="14.211" cy="56.1632" r="2.40422" fill="#FBC02D"/>
    <path opacity="0.2" d="M12.4069 56.8634C12.4061 55.8974 12.9841 55.0248 13.874 54.6487C14.7638 54.2725 15.7924 54.466 16.4848 55.1398C16.0697 54.2763 15.1812 53.742 14.2239 53.7801C13.2666 53.8183 12.4234 54.4216 12.0784 55.3154C11.7333 56.2091 11.9522 57.2225 12.6355 57.8941C12.4836 57.5718 12.4054 57.2197 12.4069 56.8634Z" fill="white"/>
    <circle cx="17.3154" cy="54.4592" r="2.7043" fill="url(#paint22_linear_0_197)"/>
    <circle cx="17.3154" cy="54.4592" r="2.40422" fill="#FBC02D"/>
    <path opacity="0.2" d="M15.5184 55.1612C15.5177 54.1951 16.0957 53.3226 16.9855 52.9464C17.8754 52.5703 18.904 52.7638 19.5963 53.4375C19.1864 52.5676 18.2971 52.026 17.3361 52.0609C16.3751 52.0957 15.5274 52.7003 15.1815 53.5976C14.8356 54.4949 15.0581 55.512 15.7471 56.1829C15.5964 55.8634 15.5183 55.5145 15.5184 55.1612Z" fill="white"/>
    <circle cx="30.5332" cy="51.4566" r="2.7043" fill="url(#paint23_linear_0_197)"/>
    <circle cx="30.5332" cy="51.4566" r="2.40422" fill="#FBC02D"/>
    <path opacity="0.2" d="M28.7363 52.1568C28.7355 51.1907 29.3135 50.3182 30.2033 49.942C31.0932 49.5659 32.1218 49.7594 32.8141 50.4331C32.4042 49.5632 31.515 49.0216 30.5539 49.0565C29.5929 49.0913 28.7452 49.6959 28.3993 50.5932C28.0534 51.4905 28.2759 52.5076 28.9649 53.1785C28.8142 52.859 28.7361 52.5101 28.7363 52.1568Z" fill="white"/>
    <circle cx="30.5332" cy="45.046" r="2.7043" fill="url(#paint24_linear_0_197)"/>
    <circle cx="30.5332" cy="45.046" r="2.40422" fill="#FBC02D"/>
    <path opacity="0.2" d="M28.7363 45.7479C28.7355 44.7819 29.3135 43.9093 30.2033 43.5332C31.0932 43.1571 32.1218 43.3505 32.8141 44.0243C32.4042 43.1544 31.515 42.6128 30.5539 42.6476C29.5929 42.6825 28.7452 43.287 28.3993 44.1843C28.0534 45.0816 28.2759 46.0987 28.9649 46.7696C28.8142 46.4501 28.7361 46.1012 28.7363 45.7479Z" fill="white"/>
    <circle cx="33.5376" cy="50.1545" r="2.7043" fill="url(#paint25_linear_0_197)"/>
    <circle cx="33.5376" cy="50.1545" r="2.40422" fill="#FBC02D"/>
    <path opacity="0.2" d="M31.7353 50.8547C31.7345 49.8886 32.3125 49.016 33.2023 48.6399C34.0922 48.2638 35.1208 48.4572 35.8132 49.131C35.4032 48.2611 34.514 47.7195 33.5529 47.7543C32.5919 47.7892 31.7443 48.3938 31.3983 49.291C31.0524 50.1883 31.2749 51.2055 31.9639 51.8764C31.8132 51.5568 31.7352 51.2079 31.7353 50.8547Z" fill="white"/>
    <circle cx="30.8332" cy="39.9392" r="2.7043" fill="url(#paint26_linear_0_197)"/>
    <circle cx="30.8333" cy="39.9392" r="2.40422" fill="#FBC02D"/>
    <path opacity="0.2" d="M29.031 40.6412C29.0302 39.6751 29.6082 38.8026 30.4981 38.4265C31.3879 38.0503 32.4165 38.2438 33.1089 38.9175C32.6989 38.0476 31.8097 37.506 30.8487 37.5409C29.8876 37.5757 29.04 38.1803 28.6941 39.0776C28.3482 39.9749 28.5707 40.992 29.2596 41.6629C29.1089 41.3434 29.0309 40.9945 29.031 40.6412Z" fill="white"/>
    <circle cx="31.4352" cy="42.6435" r="2.7043" fill="url(#paint27_linear_0_197)"/>
    <circle cx="31.4352" cy="42.6436" r="2.40422" fill="#FBC02D"/>
    <path opacity="0.2" d="M29.6294 43.3455C29.6286 42.3795 30.2066 41.5069 31.0964 41.1308C31.9863 40.7546 33.0149 40.9481 33.7072 41.6219C33.2973 40.752 32.4081 40.2104 31.447 40.2452C30.486 40.2801 29.6383 40.8846 29.2924 41.7819C28.9465 42.6792 29.169 43.6963 29.858 44.3672C29.7073 44.0477 29.6292 43.6988 29.6294 43.3455Z" fill="white"/>
    <circle cx="34.6396" cy="44.4458" r="2.7043" fill="url(#paint28_linear_0_197)"/>
    <circle cx="34.6396" cy="44.4458" r="2.40422" fill="#FBC02D"/>
    <path opacity="0.2" d="M32.8445 45.1478C32.8472 44.1851 33.4244 43.317 34.311 42.942C35.1976 42.5669 36.2225 42.7574 36.9153 43.4259C36.5053 42.556 35.6161 42.0144 34.655 42.0492C33.694 42.0841 32.8464 42.6887 32.5004 43.5859C32.1545 44.4832 32.377 45.5004 33.066 46.1713C32.9175 45.8506 32.8419 45.5011 32.8445 45.1478Z" fill="white"/>
    <circle cx="37.9441" cy="43.9457" r="2.7043" fill="url(#paint29_linear_0_197)"/>
    <circle cx="37.9441" cy="43.9457" r="2.40422" fill="#FBC02D"/>
    <path opacity="0.2" d="M36.1418 44.6459C36.1411 43.6798 36.719 42.8072 37.6089 42.4311C38.4987 42.055 39.5273 42.2485 40.2197 42.9222C39.8097 42.0523 38.9205 41.5107 37.9595 41.5455C36.9984 41.5804 36.1508 42.185 35.8049 43.0823C35.459 43.9795 35.6815 44.9967 36.3704 45.6676C36.2198 45.348 36.1417 44.9991 36.1418 44.6459Z" fill="white"/>
    <circle cx="37.0421" cy="46.6482" r="2.7043" fill="url(#paint30_linear_0_197)"/>
    <circle cx="37.0421" cy="46.6482" r="2.40422" fill="#FBC02D"/>
    <path opacity="0.2" d="M35.2398 47.3555C35.239 46.3894 35.817 45.5169 36.7069 45.1407C37.5967 44.7646 38.6253 44.9581 39.3177 45.6318C38.9077 44.7619 38.0185 44.2203 37.0574 44.2552C36.0964 44.29 35.2488 44.8946 34.9029 45.7919C34.557 46.6892 34.7795 47.7063 35.4684 48.3772C35.3177 48.0577 35.2397 47.7088 35.2398 47.3555Z" fill="white"/>
    <circle cx="25.7265" cy="43.1437" r="2.7043" fill="url(#paint31_linear_0_197)"/>
    <circle cx="25.7265" cy="43.1437" r="2.40422" fill="#FBC02D"/>
    <path opacity="0.2" d="M23.9243 43.8456C23.9235 42.8796 24.5015 42.007 25.3913 41.6309C26.2812 41.2548 27.3098 41.4482 28.0021 42.122C27.5922 41.2521 26.703 40.7105 25.7419 40.7453C24.7809 40.7802 23.9332 41.3847 23.5873 42.282C23.2414 43.1793 23.4639 44.1964 24.1529 44.8673C24.0022 44.5478 23.9241 44.1989 23.9243 43.8456Z" fill="white"/>
    <circle cx="17.9155" cy="51.3548" r="2.7043" fill="url(#paint32_linear_0_197)"/>
    <circle cx="17.9155" cy="51.3548" r="2.40422" fill="#FBC02D"/>
    <path opacity="0.2" d="M16.1133 52.0568C16.1125 51.0907 16.6905 50.2181 17.5803 49.842C18.4702 49.4659 19.4988 49.6594 20.1911 50.3331C19.7844 49.4597 18.8952 48.9138 17.9322 48.9463C16.9693 48.9788 16.119 49.5834 15.772 50.4823C15.4251 51.3811 15.6487 52.4003 16.3401 53.0713C16.1911 52.7538 16.1136 52.4075 16.1133 52.0568Z" fill="white"/>
    <circle cx="22.6221" cy="46.85" r="2.7043" fill="url(#paint33_linear_0_197)"/>
    <circle cx="22.6221" cy="46.85" r="2.40422" fill="#FBC02D"/>
    <path opacity="0.2" d="M20.8199 47.5502C20.8191 46.5841 21.3971 45.7116 22.2869 45.3354C23.1768 44.9593 24.2054 45.1528 24.8977 45.8265C24.4912 44.9508 23.5998 44.4035 22.6349 44.4372C21.6699 44.4708 20.8189 45.079 20.4744 45.9809C20.1299 46.8829 20.3588 47.9035 21.0556 48.5719C20.9025 48.253 20.822 47.904 20.8199 47.5502Z" fill="white"/>
    <circle cx="13.0089" cy="54.561" r="2.7043" fill="url(#paint34_linear_0_197)"/>
    <circle cx="13.0088" cy="54.561" r="2.40422" fill="#FBC02D"/>
    <path opacity="0.2" d="M11.2066 55.2612C11.2058 54.2951 11.7838 53.4226 12.6736 53.0464C13.5635 52.6703 14.5921 52.8638 15.2844 53.5375C14.8716 52.6717 13.9832 52.1345 13.0246 52.1709C12.0661 52.2074 11.2211 52.8106 10.8752 53.7053C10.5293 54.6 10.7487 55.6147 11.4334 56.2865C11.2828 55.9657 11.2054 55.6155 11.2066 55.2612Z" fill="white"/>
    <circle cx="38.9461" cy="52.4569" r="2.7043" fill="url(#paint35_linear_0_197)"/>
    <circle cx="38.9461" cy="52.4569" r="2.40422" fill="#FBC02D"/>
    <path opacity="0.2" d="M37.1421 53.1589C37.1413 52.1928 37.7193 51.3202 38.6091 50.9441C39.499 50.568 40.5276 50.7615 41.22 51.4352C40.81 50.5653 39.9208 50.0237 38.9597 50.0585C37.9987 50.0934 37.1511 50.698 36.8051 51.5953C36.4592 52.4926 36.6817 53.5097 37.3707 54.1806C37.22 53.8611 37.142 53.5121 37.1421 53.1589Z" fill="white"/>
    <circle cx="26.8286" cy="37.235" r="2.7043" fill="url(#paint36_linear_0_197)"/>
    <circle cx="26.8286" cy="37.235" r="2.40422" fill="#FBC02D"/>
    <path opacity="0.2" d="M25.0246 37.9369C25.0238 36.9708 25.6018 36.0983 26.4916 35.7222C27.3815 35.346 28.4101 35.5395 29.1024 36.2132C28.6914 35.3446 27.8024 34.8045 26.8421 34.84C25.8818 34.8755 25.035 35.4798 24.6893 36.3764C24.3435 37.273 24.5653 38.2894 25.2532 38.9604C25.1023 38.6403 25.0242 38.2908 25.0246 37.9369Z" fill="white"/>
    <circle cx="21.9219" cy="43.4438" r="2.7043" fill="url(#paint37_linear_0_197)"/>
    <circle cx="21.9219" cy="43.4437" r="2.40422" fill="#FBC02D"/>
    <path opacity="0.2" d="M20.1179 44.1404C20.1171 43.1743 20.6951 42.3018 21.5849 41.9256C22.4748 41.5495 23.5034 41.743 24.1958 42.4167C23.78 41.5553 22.893 41.0226 21.9373 41.0603C20.9816 41.0981 20.1393 41.6992 19.7928 42.5907C19.4464 43.4822 19.6617 44.4942 20.3412 45.1674C20.1915 44.8459 20.1153 44.4951 20.1179 44.1404Z" fill="white"/>
    <circle cx="18.0155" cy="48.0504" r="2.7043" fill="url(#paint38_linear_0_197)"/>
    <circle cx="18.0155" cy="48.0504" r="2.40422" fill="#FBC02D"/>
    <path opacity="0.2" d="M16.2133 48.7523C16.2125 47.7863 16.7905 46.9137 17.6803 46.5376C18.5702 46.1614 19.5988 46.3549 20.2911 47.0287C19.8812 46.1588 18.9919 45.6172 18.0309 45.652C17.0699 45.6869 16.2222 46.2914 15.8763 47.1887C15.5304 48.086 15.7529 49.1031 16.4419 49.774C16.2912 49.4545 16.2131 49.1056 16.2133 48.7523Z" fill="white"/>
    <circle cx="20.8199" cy="53.1589" r="2.7043" fill="url(#paint39_linear_0_197)"/>
    <circle cx="20.8199" cy="53.1589" r="2.40422" fill="#FBC02D"/>
    <path opacity="0.2" d="M19.0176 53.8591C19.0168 52.893 19.5948 52.0204 20.4847 51.6443C21.3745 51.2682 22.4031 51.4616 23.0955 52.1354C22.6855 51.2655 21.7963 50.7239 20.8353 50.7587C19.8742 50.7936 19.0266 51.3981 18.6807 52.2954C18.3348 53.1927 18.5573 54.2099 19.2462 54.8808C19.0956 54.5612 19.0175 54.2123 19.0176 53.8591Z" fill="white"/>
    <circle cx="24.6245" cy="49.7526" r="2.7043" fill="url(#paint40_linear_0_197)"/>
    <circle cx="24.6244" cy="49.7526" r="2.40422" fill="#FBC02D"/>
    <path opacity="0.2" d="M22.8222 50.4546C22.8214 49.4885 23.3994 48.6159 24.2893 48.2398C25.1791 47.8637 26.2077 48.0571 26.9001 48.7309C26.4901 47.861 25.6009 47.3194 24.6399 47.3542C23.6788 47.3891 22.8312 47.9936 22.4853 48.8909C22.1394 49.7882 22.3619 50.8053 23.0508 51.4763C22.9001 51.1567 22.8221 50.8078 22.8222 50.4546Z" fill="white"/>
    <circle cx="26.6286" cy="53.1589" r="2.7043" fill="url(#paint41_linear_0_197)"/>
    <circle cx="26.6285" cy="53.1589" r="2.40422" fill="#FBC02D"/>
    <path opacity="0.2" d="M24.8245 53.8591C24.8237 52.893 25.4017 52.0204 26.2916 51.6443C27.1814 51.2682 28.21 51.4616 28.9024 52.1354C28.4924 51.2655 27.6032 50.7239 26.6422 50.7587C25.6811 50.7936 24.8335 51.3981 24.4876 52.2954C24.1417 53.1927 24.3642 54.2099 25.0531 54.8808C24.9024 54.5612 24.8244 54.2123 24.8245 53.8591Z" fill="white"/>
    <circle cx="47.3573" cy="56.1632" r="2.7043" fill="url(#paint42_linear_0_197)"/>
    <circle cx="47.3573" cy="56.1632" r="2.40422" fill="#FBC02D"/>
    <path opacity="0.2" d="M45.555 56.8634C45.5543 55.8969 46.1328 55.024 47.0233 54.6482C47.9137 54.2724 48.9427 54.4668 49.6347 55.1415C49.2189 54.2799 48.3314 53.7471 47.3754 53.7852C46.4194 53.8233 45.5772 54.4251 45.2312 55.3171C44.8853 56.2091 45.1016 57.2213 45.7819 57.894C45.6305 57.5717 45.553 57.2196 45.555 56.8634Z" fill="white"/>
    <circle cx="43.5509" cy="55.5613" r="2.7043" fill="url(#paint43_linear_0_197)"/>
    <circle cx="43.5509" cy="55.5613" r="2.40422" fill="#FBC02D"/>
    <path opacity="0.2" d="M41.7487 56.2633C41.7479 55.2972 42.3259 54.4246 43.2158 54.0485C44.1056 53.6724 45.1342 53.8659 45.8266 54.5396C45.4166 53.6697 44.5274 53.1281 43.5663 53.1629C42.6053 53.1978 41.7577 53.8024 41.4118 54.6997C41.0659 55.5969 41.2884 56.6141 41.9773 57.285C41.8266 56.9654 41.7486 56.6165 41.7487 56.2633Z" fill="white"/>
    <circle cx="36.2418" cy="55.8614" r="2.7043" fill="url(#paint44_linear_0_197)"/>
    <circle cx="36.2418" cy="55.8614" r="2.40422" fill="#FBC02D"/>
    <circle cx="36.742" cy="53.0588" r="2.40422" fill="#FBC02D"/>
    <path opacity="0.2" d="M34.4378 56.5633C34.437 55.5973 35.015 54.7247 35.9049 54.3486C36.7947 53.9725 37.8233 54.1659 38.5157 54.8397C38.1057 53.9698 37.2165 53.4282 36.2555 53.463C35.2944 53.4979 34.4468 54.1024 34.1009 54.9997C33.755 55.897 33.9775 56.9141 34.6664 57.585C34.5157 57.2655 34.4377 56.9166 34.4378 56.5633Z" fill="white"/>
    <circle cx="28.1307" cy="56.1632" r="2.7043" fill="url(#paint45_linear_0_197)"/>
    <circle cx="28.1308" cy="56.1632" r="2.40422" fill="#FBC02D"/>
    <path opacity="0.2" d="M26.3267 56.8634C26.3259 55.8974 26.9039 55.0248 27.7938 54.6487C28.6836 54.2725 29.7122 54.466 30.4046 55.1398C29.9895 54.2763 29.101 53.742 28.1437 53.7801C27.1864 53.8183 26.3432 54.4216 25.9982 55.3154C25.6531 56.2091 25.872 57.2225 26.5553 57.8941C26.4034 57.5718 26.3252 57.2197 26.3267 56.8634Z" fill="white"/>
    <circle cx="27.3287" cy="45.3478" r="2.7043" fill="url(#paint46_linear_0_197)"/>
    <circle cx="27.3287" cy="45.3478" r="2.40422" fill="#FDD835"/>
    <path opacity="0.2" d="M25.5211 46.048C25.5161 45.0787 26.0941 44.2012 26.9867 43.8232C27.8794 43.4453 28.9117 43.6408 29.6044 44.319C29.1944 43.4491 28.3052 42.9075 27.3441 42.9423C26.3831 42.9772 25.5355 43.5818 25.1896 44.479C24.8436 45.3763 25.0661 46.3935 25.7551 47.0644C25.6034 46.7469 25.5235 46.3999 25.5211 46.048Z" fill="white"/>
    <circle cx="30.0331" cy="48.7523" r="2.7043" fill="url(#paint47_linear_0_197)"/>
    <circle cx="30.033" cy="48.7523" r="2.40422" fill="#FDD835"/>
    <path opacity="0.2" d="M28.229 49.4525C28.2282 48.486 28.8068 47.6131 29.6972 47.2373C30.5877 46.8615 31.6167 47.0558 32.3086 47.7306C31.8987 46.8607 31.0095 46.3191 30.0484 46.354C29.0874 46.3888 28.2397 46.9934 27.8938 47.8907C27.5479 48.788 27.7704 49.8051 28.4594 50.476C28.3078 50.1561 28.2292 49.8065 28.229 49.4525Z" fill="white"/>
    <circle cx="25.5265" cy="40.4412" r="2.7043" fill="url(#paint48_linear_0_197)"/>
    <circle cx="25.5265" cy="40.4412" r="2.40422" fill="#FDD835"/>
    <path opacity="0.2" d="M23.7242 41.1414C23.7235 40.1753 24.3014 39.3027 25.1913 38.9266C26.0811 38.5505 27.1097 38.7439 27.8021 39.4177C27.3921 38.5478 26.5029 38.0062 25.5419 38.041C24.5809 38.0759 23.7332 38.6804 23.3873 39.5777C23.0414 40.475 23.2639 41.4922 23.9529 42.1631C23.8022 41.8435 23.7241 41.4946 23.7242 41.1414Z" fill="white"/>
    <circle cx="28.5308" cy="40.7412" r="2.7043" fill="url(#paint49_linear_0_197)"/>
    <circle cx="28.5309" cy="40.7412" r="2.40422" fill="#FDD835"/>
    <path opacity="0.2" d="M26.7286 41.4414C26.7278 40.4754 27.3058 39.6028 28.1957 39.2267C29.0855 38.8506 30.1141 39.044 30.8065 39.7178C30.3919 38.8553 29.5051 38.3211 28.5489 38.3578C27.5928 38.3946 26.7495 38.9953 26.4024 39.887C26.0553 40.7787 26.2704 41.7914 26.9501 42.4649C26.8016 42.1443 26.726 41.7948 26.7286 41.4414Z" fill="white"/>
    <circle cx="33.5376" cy="42.1434" r="2.7043" fill="url(#paint50_linear_0_197)"/>
    <circle cx="33.5376" cy="42.1434" r="2.40422" fill="#FDD835"/>
    <path opacity="0.2" d="M31.7353 42.8436C31.7345 41.8775 32.3125 41.005 33.2023 40.6289C34.0922 40.2527 35.1208 40.4462 35.8132 41.1199C35.4032 40.25 34.514 39.7084 33.5529 39.7433C32.5919 39.7781 31.7443 40.3827 31.3983 41.28C31.0524 42.1773 31.2749 43.1944 31.9639 43.8653C31.8132 43.5458 31.7352 43.1969 31.7353 42.8436Z" fill="white"/>
    <circle cx="20.0179" cy="46.5481" r="2.7043" fill="url(#paint51_linear_0_197)"/>
    <circle cx="20.0179" cy="46.5482" r="2.40422" fill="#FDD835"/>
    <path opacity="0.2" d="M18.2156 47.2502C18.2148 46.2841 18.7928 45.4115 19.6827 45.0354C20.5725 44.6593 21.6011 44.8527 22.2935 45.5265C21.8835 44.6566 20.9943 44.115 20.0332 44.1498C19.0722 44.1847 18.2246 44.7892 17.8787 45.6865C17.5328 46.5838 17.7553 47.6009 18.4442 48.2719C18.2935 47.9523 18.2155 47.6034 18.2156 47.2502Z" fill="white"/>
    <circle cx="21.9219" cy="50.0545" r="2.7043" fill="url(#paint52_linear_0_197)"/>
    <circle cx="21.9219" cy="50.0545" r="2.40422" fill="#FDD835"/>
    <path opacity="0.2" d="M20.1179 50.7493C20.1171 49.7832 20.6951 48.9107 21.585 48.5345C22.4748 48.1584 23.5034 48.3519 24.1958 49.0256C23.779 48.1656 22.8921 47.6343 21.9372 47.6727C20.9823 47.7112 20.1409 48.312 19.7946 49.2027C19.4483 50.0935 19.6629 51.1048 20.3412 51.7781C20.1913 51.456 20.115 51.1046 20.1179 50.7493Z" fill="white"/>
    <circle cx="23.2241" cy="54.1591" r="2.7043" fill="url(#paint53_linear_0_197)"/>
    <circle cx="23.2241" cy="54.1591" r="2.40422" fill="#FDD835"/>
    <path opacity="0.2" d="M21.4129 54.8575C21.4121 53.8915 21.9901 53.0189 22.88 52.6428C23.7698 52.2667 24.7984 52.4601 25.4908 53.1339C25.0808 52.264 24.1916 51.7224 23.2306 51.7572C22.2695 51.7921 21.4219 52.3966 21.076 53.2939C20.7301 54.1912 20.9526 55.2083 21.6415 55.8792C21.4908 55.5597 21.4128 55.2108 21.4129 54.8575Z" fill="white"/>
    <circle cx="30.8332" cy="52.857" r="2.7043" fill="url(#paint54_linear_0_197)"/>
    <circle cx="30.8333" cy="52.857" r="2.40422" fill="#FDD835"/>
    <path opacity="0.2" d="M29.031 53.559C29.0302 52.5929 29.6082 51.7204 30.4981 51.3442C31.3879 50.9681 32.4165 51.1616 33.1089 51.8353C32.6989 50.9654 31.8097 50.4238 30.8487 50.4587C29.8876 50.4935 29.04 51.0981 28.6941 51.9954C28.3482 52.8927 28.5707 53.9098 29.2596 54.5807C29.1089 54.2612 29.0309 53.9122 29.031 53.559Z" fill="white"/>
    <circle cx="38.6443" cy="50.4546" r="2.7043" fill="url(#paint55_linear_0_197)"/>
    <circle cx="38.6443" cy="50.4546" r="2.40422" fill="#FDD835"/>
    <path opacity="0.2" d="M36.842 51.1565C36.8412 50.1905 37.4192 49.3179 38.3091 48.9418C39.1989 48.5657 40.2275 48.7591 40.9199 49.4329C40.5099 48.563 39.6207 48.0214 38.6597 48.0562C37.6986 48.0911 36.851 48.6956 36.5051 49.5929C36.1592 50.4902 36.3817 51.5073 37.0706 52.1782C36.92 51.8587 36.8419 51.5098 36.842 51.1565Z" fill="white"/>
    <circle cx="41.1485" cy="48.3522" r="2.7043" fill="url(#paint56_linear_0_197)"/>
    <circle cx="41.1485" cy="48.3522" r="2.40422" fill="#FDD835"/>
    <circle cx="35.0397" cy="48.1504" r="2.40422" fill="#FDD835"/>
    <path opacity="0.2" d="M39.3462 49.0524C39.3455 48.0863 39.9235 47.2138 40.8133 46.8376C41.7032 46.4615 42.7318 46.655 43.4241 47.3287C43.0141 46.4588 42.1249 45.9172 41.1639 45.9521C40.2029 45.9869 39.3552 46.5915 39.0093 47.4888C38.6634 48.3861 38.8859 49.4032 39.5749 50.0741C39.4242 49.7546 39.3461 49.4057 39.3462 49.0524Z" fill="white"/>
    <circle cx="45.0531" cy="53.1589" r="2.7043" fill="url(#paint57_linear_0_197)"/>
    <circle cx="45.0532" cy="53.1589" r="2.40422" fill="#FDD835"/>
    <path opacity="0.2" d="M43.2509 53.8591C43.2501 52.893 43.8281 52.0204 44.7179 51.6443C45.6078 51.2682 46.6364 51.4616 47.3287 52.1354C46.9188 51.2655 46.0296 50.7239 45.0685 50.7587C44.1075 50.7936 43.2598 51.3981 42.9139 52.2954C42.568 53.1927 42.7905 54.2099 43.4795 54.8808C43.3288 54.5612 43.2507 54.2123 43.2509 53.8591Z" fill="white"/>
    <circle cx="32.4355" cy="56.4633" r="2.7043" fill="url(#paint58_linear_0_197)"/>
    <circle cx="32.4355" cy="56.4633" r="2.40422" fill="#FDD835"/>
    <path opacity="0.2" d="M30.6332 57.1635C30.6324 56.1974 31.2104 55.3249 32.1003 54.9487C32.9901 54.5726 34.0187 54.7661 34.7111 55.4398C34.3011 54.5699 33.4119 54.0283 32.4509 54.0632C31.4898 54.098 30.6422 54.7026 30.2963 55.5999C29.9504 56.4972 30.1729 57.5143 30.8618 58.1852C30.7112 57.8657 30.6331 57.5168 30.6332 57.1635Z" fill="white"/>
    <circle cx="18.5175" cy="55.2612" r="2.7043" fill="url(#paint59_linear_0_197)"/>
    <circle cx="18.5175" cy="55.2612" r="2.40422" fill="#FDD835"/>
    <path opacity="0.2" d="M16.7134 55.9632C16.7126 54.9971 17.2906 54.1246 18.1805 53.7484C19.0703 53.3723 20.0989 53.5658 20.7913 54.2395C20.3839 53.3652 19.493 52.8193 18.529 52.8533C17.5651 52.8872 16.7149 53.4945 16.37 54.3953C16.0251 55.2961 16.2525 56.3159 16.9474 56.9849C16.7949 56.6658 16.7149 56.3169 16.7134 55.9632Z" fill="white"/>
    <circle cx="14.6111" cy="51.7567" r="2.7043" fill="url(#paint60_linear_0_197)"/>
    <circle cx="14.6111" cy="51.7567" r="2.40422" fill="#FDD835"/>
    <path opacity="0.2" d="M12.8088 52.4569C12.808 51.4908 13.386 50.6183 14.2759 50.2421C15.1657 49.866 16.1943 50.0595 16.8867 50.7332C16.4767 49.8633 15.5875 49.3217 14.6264 49.3566C13.6654 49.3914 12.8178 49.996 12.4719 50.8933C12.1259 51.7906 12.3485 52.8077 13.0374 53.4786C12.8867 53.1591 12.8087 52.8101 12.8088 52.4569Z" fill="white"/>
    <circle cx="19.7178" cy="50.0545" r="2.7043" fill="url(#paint61_linear_0_197)"/>
    <circle cx="19.7178" cy="50.0545" r="2.40422" fill="#FDD835"/>
    <path opacity="0.2" d="M17.9155 50.7493C17.9147 49.7832 18.4927 48.9106 19.3826 48.5345C20.2724 48.1584 21.301 48.3519 21.9934 49.0256C21.5834 48.1557 20.6942 47.6141 19.7332 47.649C18.7721 47.6838 17.9245 48.2884 17.5786 49.1857C17.2327 50.083 17.4552 51.1001 18.1441 51.771C17.9935 51.4515 17.9154 51.1025 17.9155 50.7493Z" fill="white"/>
    <circle cx="16.9134" cy="45.948" r="2.7043" fill="url(#paint62_linear_0_197)"/>
    <circle cx="16.9135" cy="45.948" r="2.40422" fill="#FDD835"/>
    <path opacity="0.2" d="M15.1112 46.6411C15.1104 45.675 15.6884 44.8024 16.5782 44.4263C17.4681 44.0502 18.4967 44.2436 19.1891 44.9174C18.7739 44.0539 17.8855 43.5196 16.9282 43.5578C15.9709 43.5959 15.1277 44.1992 14.7827 45.093C14.4376 45.9868 14.6565 47.0001 15.3398 47.6717C15.1878 47.3494 15.1097 46.9973 15.1112 46.6411Z" fill="white"/>
    <circle cx="19.3177" cy="42.1434" r="2.7043" fill="url(#paint63_linear_0_197)"/>
    <circle cx="19.3177" cy="42.1434" r="2.40422" fill="#FDD835"/>
    <path opacity="0.2" d="M17.5154 42.8436C17.5161 41.8786 18.094 41.0077 18.983 40.6322C19.8719 40.2566 20.8992 40.4495 21.5915 41.1217C21.1815 40.2518 20.2923 39.7102 19.3313 39.7451C18.3703 39.7799 17.5226 40.3845 17.1767 41.2818C16.8308 42.1791 17.0533 43.1962 17.7423 43.8671C17.5919 43.5469 17.5145 43.1973 17.5154 42.8436Z" fill="white"/>
    <circle cx="40.2465" cy="56.1632" r="2.7043" fill="url(#paint64_linear_0_197)"/>
    <circle cx="40.2465" cy="56.1632" r="2.40422" fill="#FDD835"/>
    <path opacity="0.2" d="M38.4442 56.8634C38.4434 55.8974 39.0214 55.0248 39.9113 54.6487C40.8011 54.2725 41.8297 54.466 42.5221 55.1398C42.107 54.2763 41.2185 53.742 40.2612 53.7801C39.3039 53.8183 38.4608 54.4216 38.1157 55.3154C37.7706 56.2091 37.9896 57.2225 38.6728 57.8941C38.5209 57.5718 38.4428 57.2197 38.4442 56.8634Z" fill="white"/>
    <path d="M43.9796 100.825H14.0788L6.49994 56.1614H51.6638L43.9796 100.825Z" fill="url(#paint65_linear_0_197)"/>
    <path d="M43.5509 100.225H14.7111L7.4002 56.8634H50.9619L43.5509 100.225Z" fill="white"/>
    <path d="M7.4002 56.8634H14.8111L21.8219 100.225H14.6111L7.4002 56.8634Z" fill="url(#paint66_linear_0_197)"/>
    <path d="M50.9619 56.8634H43.4509L36.2418 100.225H43.5509L50.9619 56.8634Z" fill="url(#paint67_linear_0_197)"/>
    <rect x="25.4264" y="56.8634" width="7.21086" height="43.3616" fill="url(#paint68_linear_0_197)"/>
    <circle cx="15.5131" cy="48.7523" r="2.7043" fill="url(#paint69_linear_0_197)"/>
    <circle cx="15.5131" cy="48.7523" r="2.40422" fill="#FBC02D"/>
    <path opacity="0.2" d="M13.709 49.4525C13.7083 48.4864 14.2863 47.6139 15.1761 47.2378C16.066 46.8616 17.0945 47.0551 17.7869 47.7288C17.3769 46.859 16.4877 46.3174 15.5267 46.3522C14.5657 46.387 13.718 46.9916 13.3721 47.8889C13.0262 48.7862 13.2487 49.8033 13.9377 50.4742C13.787 50.1547 13.7089 49.8058 13.709 49.4525Z" fill="white"/>
    <circle cx="22.322" cy="41.1413" r="2.7043" fill="url(#paint70_linear_0_197)"/>
    <circle cx="22.322" cy="41.1414" r="2.40422" fill="#FBC02D"/>
    <path opacity="0.2" d="M20.5198 41.8433C20.519 40.8772 21.097 40.0047 21.9869 39.6286C22.8767 39.2524 23.9053 39.4459 24.5977 40.1196C24.1877 39.2498 23.2985 38.7082 22.3375 38.743C21.3764 38.7778 20.5288 39.3824 20.1829 40.2797C19.837 41.177 20.0595 42.1941 20.7484 42.865C20.5977 42.5455 20.5197 42.1966 20.5198 41.8433Z" fill="white"/>
    <circle cx="12.8088" cy="52.857" r="2.7043" fill="url(#paint71_linear_0_197)"/>
    <circle cx="12.8088" cy="52.857" r="2.40422" fill="#FBC02D"/>
    <path opacity="0.2" d="M11.0047 53.559C11.004 52.5929 11.5819 51.7203 12.4718 51.3442C13.3616 50.9681 14.3902 51.1615 15.0826 51.8353C14.6718 50.9669 13.7831 50.4268 12.8231 50.4619C11.863 50.497 11.0163 51.1007 10.67 51.9968C10.3237 52.8929 10.5446 53.9091 11.2316 54.5807C11.0815 54.261 11.004 53.9121 11.0047 53.559Z" fill="white"/>
    <circle cx="9.56864" cy="34.4896" r="2.7043" fill="url(#paint72_linear_0_197)"/>
    <circle cx="9.56864" cy="34.4896" r="2.40422" fill="#FBC02D"/>
    <path opacity="0.2" d="M7.76635 35.1916C7.76559 34.2255 8.34358 33.3529 9.23342 32.9768C10.1233 32.6007 11.1519 32.7941 11.8442 33.4679C11.4343 32.598 10.545 32.0564 9.58401 32.0912C8.62299 32.1261 7.77533 32.7306 7.42942 33.6279C7.08352 34.5252 7.30602 35.5423 7.99498 36.2133C7.84431 35.8937 7.76623 35.5448 7.76635 35.1916Z" fill="white"/>
    <path d="M157.006 28.4987L155.797 25.5533L139.673 32.1729C138.926 32.4799 138.439 33.2072 138.439 34.0144V51.4352H141.624V34.8182L157.006 28.4987Z" fill="#F2F2F2"/>
    <path d="M160 48.4004H121.363V54.4949H124.001L129.372 103.826H152.462L157.237 54.2056H160V48.4004Z" fill="url(#paint73_linear_0_197)"/>
    <path d="M151.462 102.813H130.19L124.98 50.7154H156.094L151.462 102.813Z" fill="url(#paint74_linear_0_197)"/>
    <rect x="122.81" y="49.8473" width="35.5988" height="3.47236" fill="url(#paint75_linear_0_197)"/>
    <circle cx="140.609" cy="73.8698" r="8.82736" fill="url(#paint76_linear_0_197)"/>
    <circle cx="140.609" cy="73.8698" r="8.10396" fill="white"/>
    <circle cx="20.9449" cy="18.9961" r="2.7043" fill="url(#paint77_linear_0_197)"/>
    <circle cx="20.9449" cy="18.9961" r="2.40422" fill="#FBC02D"/>
    <path opacity="0.2" d="M19.1408 19.6963C19.1401 18.7303 19.7181 17.8577 20.6079 17.4816C21.4978 17.1055 22.5264 17.2989 23.2187 17.9727C22.8088 17.1028 21.9195 16.5612 20.9585 16.596C19.9975 16.6309 19.1498 17.2354 18.8039 18.1327C18.458 19.03 18.6805 20.0471 19.3695 20.718C19.2188 20.3985 19.1407 20.0496 19.1408 19.6963Z" fill="white"/>
    <circle cx="30.7511" cy="7.22692" r="2.7043" fill="url(#paint78_linear_0_197)"/>
    <circle cx="30.7511" cy="7.22692" r="2.40422" fill="#FDD835"/>
    <path opacity="0.2" d="M28.9488 7.92889C28.9495 6.96435 29.5269 6.09371 30.4152 5.7179C31.3035 5.34209 32.3305 5.53398 33.0231 6.20522C32.613 5.33509 31.7234 4.79349 30.7621 4.82869C29.8008 4.86389 28.9532 5.46911 28.6078 6.36691C28.2624 7.26471 28.4858 8.28197 29.1757 8.95238C29.0254 8.63217 28.9479 8.28263 28.9488 7.92889Z" fill="white"/>
    <circle cx="49.7758" cy="32.5283" r="2.7043" fill="url(#paint79_linear_0_197)"/>
    <circle cx="49.7758" cy="32.5283" r="2.40422" fill="#FDD835"/>
    <path opacity="0.2" d="M47.9736 33.2303C47.9728 32.2642 48.5508 31.3917 49.4406 31.0156C50.3305 30.6394 51.3591 30.8329 52.0514 31.5066C51.6432 30.6338 50.7529 30.0893 49.7899 30.1236C48.8269 30.1578 47.9775 30.7642 47.6323 31.6638C47.2871 32.5635 47.5128 33.5824 48.2058 34.252C48.0539 33.9328 47.9745 33.5839 47.9736 33.2303Z" fill="white"/>
    <circle cx="64.8781" cy="51.7496" r="2.7043" fill="url(#paint80_linear_0_197)"/>
    <circle cx="64.8781" cy="51.7496" r="2.40422" fill="#FDD835"/>
    <path opacity="0.2" d="M63.0758 52.4515C63.075 51.4855 63.653 50.6129 64.5429 50.2368C65.4327 49.8606 66.4613 50.0541 67.1537 50.7279C66.7437 49.858 65.8545 49.3164 64.8935 49.3512C63.9324 49.386 63.0848 49.9906 62.7389 50.8879C62.393 51.7852 62.6155 52.8023 63.3044 53.4732C63.1538 53.1537 63.0757 52.8048 63.0758 52.4515Z" fill="white"/>
    <circle cx="8.7845" cy="98.6264" r="2.7043" fill="url(#paint81_linear_0_197)"/>
    <circle cx="8.7845" cy="98.6264" r="2.40422" fill="#FBC02D"/>
    <path opacity="0.2" d="M6.98045 99.3337C6.97962 98.369 7.55598 97.4973 8.44401 97.1203C9.33204 96.7433 10.3595 96.934 11.053 97.6047C10.643 96.7348 9.75378 96.1932 8.79275 96.228C7.83172 96.2629 6.98407 96.8675 6.63816 97.7647C6.29226 98.662 6.51476 99.6792 7.20372 100.35C7.05566 100.032 6.97944 99.6848 6.98045 99.3337Z" fill="white"/>
    <circle cx="5.05672" cy="93.7215" r="2.7043" fill="url(#paint82_linear_0_197)"/>
    <circle cx="5.05671" cy="93.7215" r="2.40422" fill="#FDD835"/>
    <path opacity="0.2" d="M3.25446 94.4235C3.2537 93.4574 3.83168 92.5849 4.72153 92.2087C5.61138 91.8326 6.63996 92.0261 7.33233 92.6998C6.92236 91.8299 6.03315 91.2883 5.07212 91.3232C4.11109 91.358 3.26344 91.9626 2.91753 92.8599C2.57163 93.7572 2.79413 94.7743 3.48309 95.4452C3.33241 95.1257 3.25434 94.7768 3.25446 94.4235Z" fill="white"/>
    <circle cx="2.7043" cy="67.2448" r="2.7043" fill="url(#paint83_linear_0_197)"/>
    <circle cx="2.70429" cy="67.2448" r="2.40422" fill="#FBC02D"/>
    <path opacity="0.2" d="M0.900252 67.945C0.899509 66.9784 1.47804 66.1056 2.3685 65.7298C3.25895 65.3539 4.28793 65.5483 4.97992 66.2231C4.56907 65.3547 3.68041 64.8145 2.72039 64.8497C1.76037 64.8848 0.913574 65.4885 0.56732 66.3846C0.221066 67.2807 0.441927 68.2969 1.12889 68.9684C0.977952 68.6484 0.899867 68.2988 0.900252 67.945Z" fill="white"/>
    <circle cx="53.6983" cy="96.4687" r="2.7043" fill="url(#paint84_linear_0_197)"/>
    <circle cx="53.6983" cy="96.4687" r="2.40422" fill="#FBC02D"/>
    <path opacity="0.2" d="M51.896 97.1689C51.8953 96.2028 52.4733 95.3302 53.3631 94.9541C54.253 94.578 55.2815 94.7714 55.9739 95.4452C55.5639 94.5753 54.6747 94.0337 53.7137 94.0685C52.7527 94.1034 51.905 94.708 51.5591 95.6052C51.2132 96.5025 51.4357 97.5197 52.1247 98.1906C51.974 97.871 51.8959 97.5221 51.896 97.1689Z" fill="white"/>
    <circle cx="58.6014" cy="93.3303" r="2.7043" fill="url(#paint85_linear_0_197)"/>
    <circle cx="58.6014" cy="93.3303" r="2.40422" fill="#FBC02D"/>
    <path opacity="0.2" d="M56.7991 94.0323C56.7984 93.0662 57.3764 92.1937 58.2662 91.8175C59.1561 91.4414 60.1847 91.6349 60.877 92.3086C60.4711 91.4338 59.5814 90.8864 58.6175 90.9187C57.6536 90.9509 56.8024 91.5564 56.4558 92.4564C56.1092 93.3564 56.3344 94.3765 57.0278 95.0469C56.8781 94.7295 56.8001 94.3831 56.7991 94.0323Z" fill="white"/>
    <circle cx="59.1909" cy="97.0563" r="2.7043" fill="url(#paint86_linear_0_197)"/>
    <circle cx="59.1908" cy="97.0563" r="2.40422" fill="#FDD835"/>
    <path opacity="0.2" d="M57.3868 97.7583C57.386 96.7922 57.964 95.9197 58.8539 95.5436C59.7437 95.1674 60.7723 95.3609 61.4647 96.0346C61.0547 95.1647 60.1655 94.6231 59.2045 94.658C58.2434 94.6928 57.3958 95.2974 57.0499 96.1947C56.704 97.092 56.9265 98.1091 57.6154 98.78C57.4647 98.4605 57.3867 98.1116 57.3868 97.7583Z" fill="white"/>
    <circle cx="48.9917" cy="97.0563" r="2.7043" fill="url(#paint87_linear_0_197)"/>
    <circle cx="48.9917" cy="97.0563" r="2.40422" fill="#FDD835"/>
    <path opacity="0.2" d="M47.1876 97.7583C47.1869 96.7922 47.7649 95.9197 48.6547 95.5436C49.5446 95.1674 50.5732 95.3609 51.2655 96.0346C50.8556 95.1647 49.9663 94.6231 49.0053 94.658C48.0443 94.6928 47.1966 95.2974 46.8507 96.1947C46.5048 97.092 46.7273 98.1091 47.4163 98.78C47.2656 98.4605 47.1875 98.1116 47.1876 97.7583Z" fill="white"/>
    <defs>
        <linearGradient id="paint0_linear_0_197" x1="129.598" y1="97.0474" x2="129.598" y2="72.1961" gradientUnits="userSpaceOnUse">
            <stop stop-color="#808080" stop-opacity="0.25"/>
            <stop offset="0.54" stop-color="#808080" stop-opacity="0.12"/>
            <stop offset="1" stop-color="#808080" stop-opacity="0.1"/>
        </linearGradient>
        <linearGradient id="paint1_linear_0_197" x1="77.9146" y1="72.7856" x2="77.9146" y2="95.9629" gradientUnits="userSpaceOnUse">
            <stop stop-color="#5FADFF"/>
            <stop offset="1" stop-color="#2C93FF"/>
        </linearGradient>
        <linearGradient id="paint2_linear_0_197" x1="114.735" y1="78.8215" x2="114.735" y2="14.9848" gradientUnits="userSpaceOnUse">
            <stop stop-color="#808080" stop-opacity="0.25"/>
            <stop offset="0.54" stop-color="#808080" stop-opacity="0.12"/>
            <stop offset="1" stop-color="#808080" stop-opacity="0.1"/>
        </linearGradient>
        <linearGradient id="paint3_linear_0_197" x1="52.8741" y1="16.3215" x2="52.8741" y2="76.2112" gradientUnits="userSpaceOnUse">
            <stop stop-color="#5FADFF"/>
            <stop offset="1" stop-color="#2C93FF"/>
        </linearGradient>
        <linearGradient id="paint4_linear_0_197" x1="129.6" y1="93.7519" x2="129.6" y2="0" gradientUnits="userSpaceOnUse">
            <stop stop-color="#808080" stop-opacity="0.25"/>
            <stop offset="0.54" stop-color="#808080" stop-opacity="0.12"/>
            <stop offset="1" stop-color="#808080" stop-opacity="0.1"/>
        </linearGradient>
        <linearGradient id="paint5_linear_0_197" x1="38.1294" y1="1.33605" x2="38.1294" y2="90.5252" gradientUnits="userSpaceOnUse">
            <stop stop-color="#CAE4FF"/>
            <stop offset="1" stop-color="#8CC4FF"/>
        </linearGradient>
        <linearGradient id="paint6_linear_0_197" x1="27.2676" y1="58.9631" x2="27.2676" y2="53.5563" gradientUnits="userSpaceOnUse">
            <stop stop-color="#808080" stop-opacity="0.25"/>
            <stop offset="0.54" stop-color="#808080" stop-opacity="0.12"/>
            <stop offset="1" stop-color="#808080" stop-opacity="0.1"/>
        </linearGradient>
        <linearGradient id="paint7_linear_0_197" x1="35.0928" y1="58.9631" x2="35.0928" y2="53.5563" gradientUnits="userSpaceOnUse">
            <stop stop-color="#808080" stop-opacity="0.25"/>
            <stop offset="0.54" stop-color="#808080" stop-opacity="0.12"/>
            <stop offset="1" stop-color="#808080" stop-opacity="0.1"/>
        </linearGradient>
        <linearGradient id="paint8_linear_0_197" x1="12.8214" y1="58.9631" x2="12.8214" y2="53.5563" gradientUnits="userSpaceOnUse">
            <stop stop-color="#808080" stop-opacity="0.25"/>
            <stop offset="0.54" stop-color="#808080" stop-opacity="0.12"/>
            <stop offset="1" stop-color="#808080" stop-opacity="0.1"/>
        </linearGradient>
        <linearGradient id="paint9_linear_0_197" x1="23.0561" y1="52.1417" x2="23.0561" y2="46.7331" gradientUnits="userSpaceOnUse">
            <stop stop-color="#808080" stop-opacity="0.25"/>
            <stop offset="0.54" stop-color="#808080" stop-opacity="0.12"/>
            <stop offset="1" stop-color="#808080" stop-opacity="0.1"/>
        </linearGradient>
        <linearGradient id="paint10_linear_0_197" x1="39.0072" y1="53.2458" x2="39.0072" y2="47.8372" gradientUnits="userSpaceOnUse">
            <stop stop-color="#808080" stop-opacity="0.25"/>
            <stop offset="0.54" stop-color="#808080" stop-opacity="0.12"/>
            <stop offset="1" stop-color="#808080" stop-opacity="0.1"/>
        </linearGradient>
        <linearGradient id="paint11_linear_0_197" x1="35.0928" y1="50.8372" x2="35.0928" y2="45.4304" gradientUnits="userSpaceOnUse">
            <stop stop-color="#808080" stop-opacity="0.25"/>
            <stop offset="0.54" stop-color="#808080" stop-opacity="0.12"/>
            <stop offset="1" stop-color="#808080" stop-opacity="0.1"/>
        </linearGradient>
        <linearGradient id="paint12_linear_0_197" x1="37.0012" y1="56.5563" x2="37.0012" y2="51.1477" gradientUnits="userSpaceOnUse">
            <stop stop-color="#808080" stop-opacity="0.25"/>
            <stop offset="0.54" stop-color="#808080" stop-opacity="0.12"/>
            <stop offset="1" stop-color="#808080" stop-opacity="0.1"/>
        </linearGradient>
        <linearGradient id="paint13_linear_0_197" x1="29.9777" y1="52.1417" x2="29.9777" y2="46.7331" gradientUnits="userSpaceOnUse">
            <stop stop-color="#808080" stop-opacity="0.25"/>
            <stop offset="0.54" stop-color="#808080" stop-opacity="0.12"/>
            <stop offset="1" stop-color="#808080" stop-opacity="0.1"/>
        </linearGradient>
        <linearGradient id="paint14_linear_0_197" x1="29.6761" y1="44.5169" x2="29.6761" y2="39.1101" gradientUnits="userSpaceOnUse">
            <stop stop-color="#808080" stop-opacity="0.25"/>
            <stop offset="0.54" stop-color="#808080" stop-opacity="0.12"/>
            <stop offset="1" stop-color="#808080" stop-opacity="0.1"/>
        </linearGradient>
        <linearGradient id="paint15_linear_0_197" x1="43.0191" y1="48.4304" x2="43.0191" y2="43.0218" gradientUnits="userSpaceOnUse">
            <stop stop-color="#808080" stop-opacity="0.25"/>
            <stop offset="0.54" stop-color="#808080" stop-opacity="0.12"/>
            <stop offset="1" stop-color="#808080" stop-opacity="0.1"/>
        </linearGradient>
        <linearGradient id="paint16_linear_0_197" x1="41.7164" y1="53.5464" x2="41.7164" y2="48.1379" gradientUnits="userSpaceOnUse">
            <stop stop-color="#808080" stop-opacity="0.25"/>
            <stop offset="0.54" stop-color="#808080" stop-opacity="0.12"/>
            <stop offset="1" stop-color="#808080" stop-opacity="0.1"/>
        </linearGradient>
        <linearGradient id="paint17_linear_0_197" x1="47.7335" y1="52.5426" x2="47.7335" y2="47.1357" gradientUnits="userSpaceOnUse">
            <stop stop-color="#808080" stop-opacity="0.25"/>
            <stop offset="0.54" stop-color="#808080" stop-opacity="0.12"/>
            <stop offset="1" stop-color="#808080" stop-opacity="0.1"/>
        </linearGradient>
        <linearGradient id="paint18_linear_0_197" x1="45.0269" y1="55.0514" x2="45.0269" y2="49.6428" gradientUnits="userSpaceOnUse">
            <stop stop-color="#808080" stop-opacity="0.25"/>
            <stop offset="0.54" stop-color="#808080" stop-opacity="0.12"/>
            <stop offset="1" stop-color="#808080" stop-opacity="0.1"/>
        </linearGradient>
        <linearGradient id="paint19_linear_0_197" x1="26.9678" y1="48.4304" x2="26.9678" y2="43.0218" gradientUnits="userSpaceOnUse">
            <stop stop-color="#808080" stop-opacity="0.25"/>
            <stop offset="0.54" stop-color="#808080" stop-opacity="0.12"/>
            <stop offset="1" stop-color="#808080" stop-opacity="0.1"/>
        </linearGradient>
        <linearGradient id="paint20_linear_0_197" x1="23.0552" y1="58.6625" x2="23.0552" y2="53.2557" gradientUnits="userSpaceOnUse">
            <stop stop-color="#808080" stop-opacity="0.25"/>
            <stop offset="0.54" stop-color="#808080" stop-opacity="0.12"/>
            <stop offset="1" stop-color="#808080" stop-opacity="0.1"/>
        </linearGradient>
        <linearGradient id="paint21_linear_0_197" x1="16.9353" y1="58.9631" x2="16.9353" y2="53.5563" gradientUnits="userSpaceOnUse">
            <stop stop-color="#808080" stop-opacity="0.25"/>
            <stop offset="0.54" stop-color="#808080" stop-opacity="0.12"/>
            <stop offset="1" stop-color="#808080" stop-opacity="0.1"/>
        </linearGradient>
        <linearGradient id="paint22_linear_0_197" x1="20.0454" y1="57.2577" x2="20.0454" y2="51.8509" gradientUnits="userSpaceOnUse">
            <stop stop-color="#808080" stop-opacity="0.25"/>
            <stop offset="0.54" stop-color="#808080" stop-opacity="0.12"/>
            <stop offset="1" stop-color="#808080" stop-opacity="0.1"/>
        </linearGradient>
        <linearGradient id="paint23_linear_0_197" x1="33.2872" y1="54.2479" x2="33.2872" y2="48.8411" gradientUnits="userSpaceOnUse">
            <stop stop-color="#808080" stop-opacity="0.25"/>
            <stop offset="0.54" stop-color="#808080" stop-opacity="0.12"/>
            <stop offset="1" stop-color="#808080" stop-opacity="0.1"/>
        </linearGradient>
        <linearGradient id="paint24_linear_0_197" x1="33.2872" y1="47.8274" x2="33.2872" y2="42.4206" gradientUnits="userSpaceOnUse">
            <stop stop-color="#808080" stop-opacity="0.25"/>
            <stop offset="0.54" stop-color="#808080" stop-opacity="0.12"/>
            <stop offset="1" stop-color="#808080" stop-opacity="0.1"/>
        </linearGradient>
        <linearGradient id="paint25_linear_0_197" x1="36.2971" y1="52.9434" x2="36.2971" y2="47.5366" gradientUnits="userSpaceOnUse">
            <stop stop-color="#808080" stop-opacity="0.25"/>
            <stop offset="0.54" stop-color="#808080" stop-opacity="0.12"/>
            <stop offset="1" stop-color="#808080" stop-opacity="0.1"/>
        </linearGradient>
        <linearGradient id="paint26_linear_0_197" x1="33.5888" y1="42.7113" x2="33.5888" y2="37.3028" gradientUnits="userSpaceOnUse">
            <stop stop-color="#808080" stop-opacity="0.25"/>
            <stop offset="0.54" stop-color="#808080" stop-opacity="0.12"/>
            <stop offset="1" stop-color="#808080" stop-opacity="0.1"/>
        </linearGradient>
        <linearGradient id="paint27_linear_0_197" x1="34.1918" y1="45.4206" x2="34.1918" y2="40.012" gradientUnits="userSpaceOnUse">
            <stop stop-color="#808080" stop-opacity="0.25"/>
            <stop offset="0.54" stop-color="#808080" stop-opacity="0.12"/>
            <stop offset="1" stop-color="#808080" stop-opacity="0.1"/>
        </linearGradient>
        <linearGradient id="paint28_linear_0_197" x1="37.4021" y1="47.2261" x2="37.4021" y2="41.8175" gradientUnits="userSpaceOnUse">
            <stop stop-color="#808080" stop-opacity="0.25"/>
            <stop offset="0.54" stop-color="#808080" stop-opacity="0.12"/>
            <stop offset="1" stop-color="#808080" stop-opacity="0.1"/>
        </linearGradient>
        <linearGradient id="paint29_linear_0_197" x1="40.7116" y1="46.7233" x2="40.7116" y2="41.3165" gradientUnits="userSpaceOnUse">
            <stop stop-color="#808080" stop-opacity="0.25"/>
            <stop offset="0.54" stop-color="#808080" stop-opacity="0.12"/>
            <stop offset="1" stop-color="#808080" stop-opacity="0.1"/>
        </linearGradient>
        <linearGradient id="paint30_linear_0_197" x1="39.808" y1="49.4325" x2="39.808" y2="44.0257" gradientUnits="userSpaceOnUse">
            <stop stop-color="#808080" stop-opacity="0.25"/>
            <stop offset="0.54" stop-color="#808080" stop-opacity="0.12"/>
            <stop offset="1" stop-color="#808080" stop-opacity="0.1"/>
        </linearGradient>
        <linearGradient id="paint31_linear_0_197" x1="28.4718" y1="45.9216" x2="28.4718" y2="40.5148" gradientUnits="userSpaceOnUse">
            <stop stop-color="#808080" stop-opacity="0.25"/>
            <stop offset="0.54" stop-color="#808080" stop-opacity="0.12"/>
            <stop offset="1" stop-color="#808080" stop-opacity="0.1"/>
        </linearGradient>
        <linearGradient id="paint32_linear_0_197" x1="20.6466" y1="54.1477" x2="20.6466" y2="48.7409" gradientUnits="userSpaceOnUse">
            <stop stop-color="#808080" stop-opacity="0.25"/>
            <stop offset="0.54" stop-color="#808080" stop-opacity="0.12"/>
            <stop offset="1" stop-color="#808080" stop-opacity="0.1"/>
        </linearGradient>
        <linearGradient id="paint33_linear_0_197" x1="25.3618" y1="49.6329" x2="25.3618" y2="44.2261" gradientUnits="userSpaceOnUse">
            <stop stop-color="#808080" stop-opacity="0.25"/>
            <stop offset="0.54" stop-color="#808080" stop-opacity="0.12"/>
            <stop offset="1" stop-color="#808080" stop-opacity="0.1"/>
        </linearGradient>
        <linearGradient id="paint34_linear_0_197" x1="15.731" y1="57.3579" x2="15.731" y2="51.9511" gradientUnits="userSpaceOnUse">
            <stop stop-color="#808080" stop-opacity="0.25"/>
            <stop offset="0.54" stop-color="#808080" stop-opacity="0.12"/>
            <stop offset="1" stop-color="#808080" stop-opacity="0.1"/>
        </linearGradient>
        <linearGradient id="paint35_linear_0_197" x1="41.7164" y1="55.2518" x2="41.7164" y2="49.8432" gradientUnits="userSpaceOnUse">
            <stop stop-color="#808080" stop-opacity="0.25"/>
            <stop offset="0.54" stop-color="#808080" stop-opacity="0.12"/>
            <stop offset="1" stop-color="#808080" stop-opacity="0.1"/>
        </linearGradient>
        <linearGradient id="paint36_linear_0_197" x1="29.576" y1="40.0021" x2="29.576" y2="34.5953" gradientUnits="userSpaceOnUse">
            <stop stop-color="#808080" stop-opacity="0.25"/>
            <stop offset="0.54" stop-color="#808080" stop-opacity="0.12"/>
            <stop offset="1" stop-color="#808080" stop-opacity="0.1"/>
        </linearGradient>
        <linearGradient id="paint37_linear_0_197" x1="24.6603" y1="46.2222" x2="24.6603" y2="40.8154" gradientUnits="userSpaceOnUse">
            <stop stop-color="#808080" stop-opacity="0.25"/>
            <stop offset="0.54" stop-color="#808080" stop-opacity="0.12"/>
            <stop offset="1" stop-color="#808080" stop-opacity="0.1"/>
        </linearGradient>
        <linearGradient id="paint38_linear_0_197" x1="20.7468" y1="50.8372" x2="20.7468" y2="45.4304" gradientUnits="userSpaceOnUse">
            <stop stop-color="#808080" stop-opacity="0.25"/>
            <stop offset="0.54" stop-color="#808080" stop-opacity="0.12"/>
            <stop offset="1" stop-color="#808080" stop-opacity="0.1"/>
        </linearGradient>
        <linearGradient id="paint39_linear_0_197" x1="23.5563" y1="55.9532" x2="23.5563" y2="50.5464" gradientUnits="userSpaceOnUse">
            <stop stop-color="#808080" stop-opacity="0.25"/>
            <stop offset="0.54" stop-color="#808080" stop-opacity="0.12"/>
            <stop offset="1" stop-color="#808080" stop-opacity="0.1"/>
        </linearGradient>
        <linearGradient id="paint40_linear_0_197" x1="27.3678" y1="52.5426" x2="27.3678" y2="47.1357" gradientUnits="userSpaceOnUse">
            <stop stop-color="#808080" stop-opacity="0.25"/>
            <stop offset="0.54" stop-color="#808080" stop-opacity="0.12"/>
            <stop offset="1" stop-color="#808080" stop-opacity="0.1"/>
        </linearGradient>
        <linearGradient id="paint41_linear_0_197" x1="29.3755" y1="55.9532" x2="29.3755" y2="50.5464" gradientUnits="userSpaceOnUse">
            <stop stop-color="#808080" stop-opacity="0.25"/>
            <stop offset="0.54" stop-color="#808080" stop-opacity="0.12"/>
            <stop offset="1" stop-color="#808080" stop-opacity="0.1"/>
        </linearGradient>
        <linearGradient id="paint42_linear_0_197" x1="50.142" y1="58.9631" x2="50.142" y2="53.5563" gradientUnits="userSpaceOnUse">
            <stop stop-color="#808080" stop-opacity="0.25"/>
            <stop offset="0.54" stop-color="#808080" stop-opacity="0.12"/>
            <stop offset="1" stop-color="#808080" stop-opacity="0.1"/>
        </linearGradient>
        <linearGradient id="paint43_linear_0_197" x1="46.3296" y1="58.3618" x2="46.3296" y2="52.9533" gradientUnits="userSpaceOnUse">
            <stop stop-color="#808080" stop-opacity="0.25"/>
            <stop offset="0.54" stop-color="#808080" stop-opacity="0.12"/>
            <stop offset="1" stop-color="#808080" stop-opacity="0.1"/>
        </linearGradient>
        <linearGradient id="paint44_linear_0_197" x1="39.0063" y1="58.6625" x2="39.0063" y2="53.2557" gradientUnits="userSpaceOnUse">
            <stop stop-color="#808080" stop-opacity="0.25"/>
            <stop offset="0.54" stop-color="#808080" stop-opacity="0.12"/>
            <stop offset="1" stop-color="#808080" stop-opacity="0.1"/>
        </linearGradient>
        <linearGradient id="paint45_linear_0_197" x1="30.8804" y1="58.9631" x2="30.8804" y2="53.5563" gradientUnits="userSpaceOnUse">
            <stop stop-color="#808080" stop-opacity="0.25"/>
            <stop offset="0.54" stop-color="#808080" stop-opacity="0.12"/>
            <stop offset="1" stop-color="#808080" stop-opacity="0.1"/>
        </linearGradient>
        <linearGradient id="paint46_linear_0_197" x1="30.077" y1="48.128" x2="30.077" y2="42.7212" gradientUnits="userSpaceOnUse">
            <stop stop-color="#808080" stop-opacity="0.25"/>
            <stop offset="0.54" stop-color="#808080" stop-opacity="0.12"/>
            <stop offset="1" stop-color="#808080" stop-opacity="0.1"/>
        </linearGradient>
        <linearGradient id="paint47_linear_0_197" x1="32.7871" y1="51.5405" x2="32.7871" y2="46.1319" gradientUnits="userSpaceOnUse">
            <stop stop-color="#808080" stop-opacity="0.25"/>
            <stop offset="0.54" stop-color="#808080" stop-opacity="0.12"/>
            <stop offset="1" stop-color="#808080" stop-opacity="0.1"/>
        </linearGradient>
        <linearGradient id="paint48_linear_0_197" x1="28.2714" y1="43.2124" x2="28.2714" y2="37.8056" gradientUnits="userSpaceOnUse">
            <stop stop-color="#808080" stop-opacity="0.25"/>
            <stop offset="0.54" stop-color="#808080" stop-opacity="0.12"/>
            <stop offset="1" stop-color="#808080" stop-opacity="0.1"/>
        </linearGradient>
        <linearGradient id="paint49_linear_0_197" x1="31.2813" y1="43.513" x2="31.2813" y2="38.1062" gradientUnits="userSpaceOnUse">
            <stop stop-color="#808080" stop-opacity="0.25"/>
            <stop offset="0.54" stop-color="#808080" stop-opacity="0.12"/>
            <stop offset="1" stop-color="#808080" stop-opacity="0.1"/>
        </linearGradient>
        <linearGradient id="paint50_linear_0_197" x1="36.2971" y1="44.9177" x2="36.2971" y2="39.5109" gradientUnits="userSpaceOnUse">
            <stop stop-color="#808080" stop-opacity="0.25"/>
            <stop offset="0.54" stop-color="#808080" stop-opacity="0.12"/>
            <stop offset="1" stop-color="#808080" stop-opacity="0.1"/>
        </linearGradient>
        <linearGradient id="paint51_linear_0_197" x1="22.7528" y1="49.3323" x2="22.7528" y2="43.9255" gradientUnits="userSpaceOnUse">
            <stop stop-color="#808080" stop-opacity="0.25"/>
            <stop offset="0.54" stop-color="#808080" stop-opacity="0.12"/>
            <stop offset="1" stop-color="#808080" stop-opacity="0.1"/>
        </linearGradient>
        <linearGradient id="paint52_linear_0_197" x1="24.6603" y1="52.8432" x2="24.6603" y2="47.4364" gradientUnits="userSpaceOnUse">
            <stop stop-color="#808080" stop-opacity="0.25"/>
            <stop offset="0.54" stop-color="#808080" stop-opacity="0.12"/>
            <stop offset="1" stop-color="#808080" stop-opacity="0.1"/>
        </linearGradient>
        <linearGradient id="paint53_linear_0_197" x1="25.9648" y1="56.9571" x2="25.9648" y2="51.5503" gradientUnits="userSpaceOnUse">
            <stop stop-color="#808080" stop-opacity="0.25"/>
            <stop offset="0.54" stop-color="#808080" stop-opacity="0.12"/>
            <stop offset="1" stop-color="#808080" stop-opacity="0.1"/>
        </linearGradient>
        <linearGradient id="paint54_linear_0_197" x1="33.5879" y1="55.6526" x2="33.5879" y2="50.2458" gradientUnits="userSpaceOnUse">
            <stop stop-color="#808080" stop-opacity="0.25"/>
            <stop offset="0.54" stop-color="#808080" stop-opacity="0.12"/>
            <stop offset="1" stop-color="#808080" stop-opacity="0.1"/>
        </linearGradient>
        <linearGradient id="paint55_linear_0_197" x1="41.414" y1="53.2458" x2="41.414" y2="47.8372" gradientUnits="userSpaceOnUse">
            <stop stop-color="#808080" stop-opacity="0.25"/>
            <stop offset="0.54" stop-color="#808080" stop-opacity="0.12"/>
            <stop offset="1" stop-color="#808080" stop-opacity="0.1"/>
        </linearGradient>
        <linearGradient id="paint56_linear_0_197" x1="43.9219" y1="51.1378" x2="43.9219" y2="45.731" gradientUnits="userSpaceOnUse">
            <stop stop-color="#808080" stop-opacity="0.25"/>
            <stop offset="0.54" stop-color="#808080" stop-opacity="0.12"/>
            <stop offset="1" stop-color="#808080" stop-opacity="0.1"/>
        </linearGradient>
        <linearGradient id="paint57_linear_0_197" x1="47.8336" y1="55.9532" x2="47.8336" y2="50.5464" gradientUnits="userSpaceOnUse">
            <stop stop-color="#808080" stop-opacity="0.25"/>
            <stop offset="0.54" stop-color="#808080" stop-opacity="0.12"/>
            <stop offset="1" stop-color="#808080" stop-opacity="0.1"/>
        </linearGradient>
        <linearGradient id="paint58_linear_0_197" x1="35.193" y1="59.2637" x2="35.193" y2="53.8569" gradientUnits="userSpaceOnUse">
            <stop stop-color="#808080" stop-opacity="0.25"/>
            <stop offset="0.54" stop-color="#808080" stop-opacity="0.12"/>
            <stop offset="1" stop-color="#808080" stop-opacity="0.1"/>
        </linearGradient>
        <linearGradient id="paint59_linear_0_197" x1="21.2506" y1="58.0612" x2="21.2506" y2="52.6526" gradientUnits="userSpaceOnUse">
            <stop stop-color="#808080" stop-opacity="0.25"/>
            <stop offset="0.54" stop-color="#808080" stop-opacity="0.12"/>
            <stop offset="1" stop-color="#808080" stop-opacity="0.1"/>
        </linearGradient>
        <linearGradient id="paint60_linear_0_197" x1="17.3362" y1="54.5485" x2="17.3362" y2="49.1417" gradientUnits="userSpaceOnUse">
            <stop stop-color="#808080" stop-opacity="0.25"/>
            <stop offset="0.54" stop-color="#808080" stop-opacity="0.12"/>
            <stop offset="1" stop-color="#808080" stop-opacity="0.1"/>
        </linearGradient>
        <linearGradient id="paint61_linear_0_197" x1="22.4521" y1="52.8432" x2="22.4521" y2="47.4364" gradientUnits="userSpaceOnUse">
            <stop stop-color="#808080" stop-opacity="0.25"/>
            <stop offset="0.54" stop-color="#808080" stop-opacity="0.12"/>
            <stop offset="1" stop-color="#808080" stop-opacity="0.1"/>
        </linearGradient>
        <linearGradient id="paint62_linear_0_197" x1="19.6436" y1="48.731" x2="19.6436" y2="43.3224" gradientUnits="userSpaceOnUse">
            <stop stop-color="#808080" stop-opacity="0.25"/>
            <stop offset="0.54" stop-color="#808080" stop-opacity="0.12"/>
            <stop offset="1" stop-color="#808080" stop-opacity="0.1"/>
        </linearGradient>
        <linearGradient id="paint63_linear_0_197" x1="22.0513" y1="44.9177" x2="22.0513" y2="39.5109" gradientUnits="userSpaceOnUse">
            <stop stop-color="#808080" stop-opacity="0.25"/>
            <stop offset="0.54" stop-color="#808080" stop-opacity="0.12"/>
            <stop offset="1" stop-color="#808080" stop-opacity="0.1"/>
        </linearGradient>
        <linearGradient id="paint64_linear_0_197" x1="43.0182" y1="58.9631" x2="43.0182" y2="53.5563" gradientUnits="userSpaceOnUse">
            <stop stop-color="#808080" stop-opacity="0.25"/>
            <stop offset="0.54" stop-color="#808080" stop-opacity="0.12"/>
            <stop offset="1" stop-color="#808080" stop-opacity="0.1"/>
        </linearGradient>
        <linearGradient id="paint65_linear_0_197" x1="51.662" y1="100.825" x2="51.662" y2="56.1632" gradientUnits="userSpaceOnUse">
            <stop stop-color="#808080" stop-opacity="0.25"/>
            <stop offset="0.54" stop-color="#808080" stop-opacity="0.12"/>
            <stop offset="1" stop-color="#808080" stop-opacity="0.1"/>
        </linearGradient>
        <linearGradient id="paint66_linear_0_197" x1="7.55112" y1="56.8634" x2="7.55112" y2="99.3175" gradientUnits="userSpaceOnUse">
            <stop stop-color="#5FADFF"/>
            <stop offset="1" stop-color="#2C93FF"/>
        </linearGradient>
        <linearGradient id="paint67_linear_0_197" x1="36.3959" y1="56.8634" x2="36.3959" y2="99.3175" gradientUnits="userSpaceOnUse">
            <stop stop-color="#5FADFF"/>
            <stop offset="1" stop-color="#2C93FF"/>
        </linearGradient>
        <linearGradient id="paint68_linear_0_197" x1="25.5482" y1="56.967" x2="25.5482" y2="99.421" gradientUnits="userSpaceOnUse">
            <stop stop-color="#5FADFF"/>
            <stop offset="1" stop-color="#2C93FF"/>
        </linearGradient>
        <linearGradient id="paint69_linear_0_197" x1="18.2407" y1="51.5405" x2="18.2407" y2="46.1319" gradientUnits="userSpaceOnUse">
            <stop stop-color="#808080" stop-opacity="0.25"/>
            <stop offset="0.54" stop-color="#808080" stop-opacity="0.12"/>
            <stop offset="1" stop-color="#808080" stop-opacity="0.1"/>
        </linearGradient>
        <linearGradient id="paint70_linear_0_197" x1="25.0621" y1="43.9156" x2="25.0621" y2="38.507" gradientUnits="userSpaceOnUse">
            <stop stop-color="#808080" stop-opacity="0.25"/>
            <stop offset="0.54" stop-color="#808080" stop-opacity="0.12"/>
            <stop offset="1" stop-color="#808080" stop-opacity="0.1"/>
        </linearGradient>
        <linearGradient id="paint71_linear_0_197" x1="15.5306" y1="55.6526" x2="15.5306" y2="50.2458" gradientUnits="userSpaceOnUse">
            <stop stop-color="#808080" stop-opacity="0.25"/>
            <stop offset="0.54" stop-color="#808080" stop-opacity="0.12"/>
            <stop offset="1" stop-color="#808080" stop-opacity="0.1"/>
        </linearGradient>
        <linearGradient id="paint72_linear_0_197" x1="12.2854" y1="37.2518" x2="12.2854" y2="31.8432" gradientUnits="userSpaceOnUse">
            <stop stop-color="#808080" stop-opacity="0.25"/>
            <stop offset="0.54" stop-color="#808080" stop-opacity="0.12"/>
            <stop offset="1" stop-color="#808080" stop-opacity="0.1"/>
        </linearGradient>
        <linearGradient id="paint73_linear_0_197" x1="160.001" y1="103.826" x2="160.001" y2="48.4004" gradientUnits="userSpaceOnUse">
            <stop stop-color="#808080" stop-opacity="0.25"/>
            <stop offset="0.54" stop-color="#808080" stop-opacity="0.12"/>
            <stop offset="1" stop-color="#808080" stop-opacity="0.1"/>
        </linearGradient>
        <linearGradient id="paint74_linear_0_197" x1="125.305" y1="50.7154" x2="125.305" y2="101.723" gradientUnits="userSpaceOnUse">
            <stop stop-color="#5FADFF"/>
            <stop offset="1" stop-color="#2C93FF"/>
        </linearGradient>
        <linearGradient id="paint75_linear_0_197" x1="123.406" y1="49.938" x2="123.406" y2="53.3377" gradientUnits="userSpaceOnUse">
            <stop stop-color="#5FADFF"/>
            <stop offset="1" stop-color="#2C93FF"/>
        </linearGradient>
        <linearGradient id="paint76_linear_0_197" x1="149.676" y1="82.8156" x2="149.676" y2="65.1608" gradientUnits="userSpaceOnUse">
            <stop stop-opacity="0.12"/>
            <stop offset="0.55" stop-opacity="0.09"/>
            <stop offset="1" stop-opacity="0.02"/>
        </linearGradient>
        <linearGradient id="paint77_linear_0_197" x1="23.6815" y1="21.7283" x2="23.6815" y2="16.3215" gradientUnits="userSpaceOnUse">
            <stop stop-color="#808080" stop-opacity="0.25"/>
            <stop offset="0.54" stop-color="#808080" stop-opacity="0.12"/>
            <stop offset="1" stop-color="#808080" stop-opacity="0.1"/>
        </linearGradient>
        <linearGradient id="paint78_linear_0_197" x1="33.5065" y1="9.93945" x2="33.5065" y2="4.53086" gradientUnits="userSpaceOnUse">
            <stop stop-color="#808080" stop-opacity="0.25"/>
            <stop offset="0.54" stop-color="#808080" stop-opacity="0.12"/>
            <stop offset="1" stop-color="#808080" stop-opacity="0.1"/>
        </linearGradient>
        <linearGradient id="paint79_linear_0_197" x1="52.5658" y1="35.2869" x2="52.5658" y2="29.8784" gradientUnits="userSpaceOnUse">
            <stop stop-color="#808080" stop-opacity="0.25"/>
            <stop offset="0.54" stop-color="#808080" stop-opacity="0.12"/>
            <stop offset="1" stop-color="#808080" stop-opacity="0.1"/>
        </linearGradient>
        <linearGradient id="paint80_linear_0_197" x1="67.6956" y1="54.5432" x2="67.6956" y2="49.1346" gradientUnits="userSpaceOnUse">
            <stop stop-color="#808080" stop-opacity="0.25"/>
            <stop offset="0.54" stop-color="#808080" stop-opacity="0.12"/>
            <stop offset="1" stop-color="#808080" stop-opacity="0.1"/>
        </linearGradient>
        <linearGradient id="paint81_linear_0_197" x1="11.499" y1="101.504" x2="11.499" y2="96.0968" gradientUnits="userSpaceOnUse">
            <stop stop-color="#808080" stop-opacity="0.25"/>
            <stop offset="0.54" stop-color="#808080" stop-opacity="0.12"/>
            <stop offset="1" stop-color="#808080" stop-opacity="0.1"/>
        </linearGradient>
        <linearGradient id="paint82_linear_0_197" x1="7.7644" y1="96.5916" x2="7.7644" y2="91.1847" gradientUnits="userSpaceOnUse">
            <stop stop-color="#808080" stop-opacity="0.25"/>
            <stop offset="0.54" stop-color="#808080" stop-opacity="0.12"/>
            <stop offset="1" stop-color="#808080" stop-opacity="0.1"/>
        </linearGradient>
        <linearGradient id="paint83_linear_0_197" x1="5.4077" y1="70.0648" x2="5.4077" y2="64.658" gradientUnits="userSpaceOnUse">
            <stop stop-color="#808080" stop-opacity="0.25"/>
            <stop offset="0.54" stop-color="#808080" stop-opacity="0.12"/>
            <stop offset="1" stop-color="#808080" stop-opacity="0.1"/>
        </linearGradient>
        <linearGradient id="paint84_linear_0_197" x1="56.4946" y1="99.3419" x2="56.4946" y2="93.9351" gradientUnits="userSpaceOnUse">
            <stop stop-color="#808080" stop-opacity="0.25"/>
            <stop offset="0.54" stop-color="#808080" stop-opacity="0.12"/>
            <stop offset="1" stop-color="#808080" stop-opacity="0.1"/>
        </linearGradient>
        <linearGradient id="paint85_linear_0_197" x1="61.4075" y1="96.1997" x2="61.4075" y2="90.7911" gradientUnits="userSpaceOnUse">
            <stop stop-color="#808080" stop-opacity="0.25"/>
            <stop offset="0.54" stop-color="#808080" stop-opacity="0.12"/>
            <stop offset="1" stop-color="#808080" stop-opacity="0.1"/>
        </linearGradient>
        <linearGradient id="paint86_linear_0_197" x1="61.998" y1="99.9325" x2="61.998" y2="94.5239" gradientUnits="userSpaceOnUse">
            <stop stop-color="#808080" stop-opacity="0.25"/>
            <stop offset="0.54" stop-color="#808080" stop-opacity="0.12"/>
            <stop offset="1" stop-color="#808080" stop-opacity="0.1"/>
        </linearGradient>
        <linearGradient id="paint87_linear_0_197" x1="51.7803" y1="99.9325" x2="51.7803" y2="94.5239" gradientUnits="userSpaceOnUse">
            <stop stop-color="#808080" stop-opacity="0.25"/>
            <stop offset="0.54" stop-color="#808080" stop-opacity="0.12"/>
            <stop offset="1" stop-color="#808080" stop-opacity="0.1"/>
        </linearGradient>
    </defs>
</svg>
